<svg width="20" height="20" viewBox="0 0 20 20" fill="none" xmlns="http://www.w3.org/2000/svg">
<g opacity="0.3">
<path d="M14.3774 9.06731H10.9322V5.62214C10.9322 5.10791 10.514 4.6897 9.99975 4.6897C9.48552 4.6897 9.06731 5.10791 9.06731 5.62214V9.06731H5.62214C5.10791 9.06731 4.6897 9.48552 4.6897 9.99975C4.6897 10.514 5.10791 10.9322 5.62214 10.9322H9.06731V14.3774C9.06731 14.8916 9.48552 15.3098 9.99975 15.3098C10.514 15.3098 10.9322 14.8916 10.9322 14.3774V10.9322H14.3774C14.8916 10.9322 15.3098 10.514 15.3098 9.99975C15.3098 9.48552 14.8916 9.06731 14.3774 9.06731Z" fill="#5A6770"/>
<path d="M17.0729 2.92751C15.1852 1.03985 12.6732 0 10 0C7.32676 0 4.81518 1.03947 2.92751 2.92713C1.03985 4.8148 0 7.32676 0 10C0 12.6732 1.03947 15.1848 2.92713 17.0725C4.8148 18.9605 7.32676 20 10 20C12.6732 20 15.1848 18.9605 17.0725 17.0729C18.9605 15.1852 20 12.6732 20 10C20 7.32676 18.9605 4.81518 17.0729 2.92751ZM10 18.1355C5.51423 18.1355 1.86452 14.4861 1.86452 10C1.86452 5.51385 5.51423 1.86452 10 1.86452C14.4858 1.86452 18.1355 5.51423 18.1355 10C18.1355 14.4858 14.4858 18.1355 10 18.1355Z" fill="#5A6770"/>
</g>
</svg>
