<svg width="24" height="24" viewBox="0 0 24 24" fill="none" xmlns="http://www.w3.org/2000/svg">
<path fill-rule="evenodd" clip-rule="evenodd" d="M11.9998 15.4998C11.7438 15.4998 11.4878 15.4018 11.2928 15.2068L7.29276 11.2068C6.90176 10.8158 6.90176 10.1838 7.29276 9.79276C7.68376 9.40176 8.31576 9.40176 8.70676 9.79276L12.0118 13.0978L15.3048 9.91776C15.7038 9.53476 16.3348 9.54576 16.7188 9.94276C17.1028 10.3398 17.0918 10.9738 16.6948 11.3568L12.6948 15.2188C12.4998 15.4068 12.2498 15.4998 11.9998 15.4998Z" fill="#231F20"/>
<mask id="mask0" mask-type="alpha" maskUnits="userSpaceOnUse" x="6" y="9" width="11" height="7">
<path fill-rule="evenodd" clip-rule="evenodd" d="M11.9998 15.4998C11.7438 15.4998 11.4878 15.4018 11.2928 15.2068L7.29276 11.2068C6.90176 10.8158 6.90176 10.1838 7.29276 9.79276C7.68376 9.40176 8.31576 9.40176 8.70676 9.79276L12.0118 13.0978L15.3048 9.91776C15.7038 9.53476 16.3348 9.54576 16.7188 9.94276C17.1028 10.3398 17.0918 10.9738 16.6948 11.3568L12.6948 15.2188C12.4998 15.4068 12.2498 15.4998 11.9998 15.4998Z" fill="white"/>
</mask>
<g mask="url(#mask0)">
<rect width="24" height="24" fill="#323C47"/>
</g>
</svg>
