<svg width="11" height="14" viewBox="0 0 11 14" fill="none" xmlns="http://www.w3.org/2000/svg">
<path fill-rule="evenodd" clip-rule="evenodd" d="M5.33333 9.33333C4.96533 9.33333 4.66667 9.03467 4.66667 8.66667C4.66667 8.29867 4.96533 8 5.33333 8C5.70133 8 6 8.29867 6 8.66667C6 9.03467 5.70133 9.33333 5.33333 9.33333ZM5.33333 6.66667C4.23067 6.66667 3.33333 7.564 3.33333 8.66667C3.33333 9.76933 4.23067 10.6667 5.33333 10.6667C6.436 10.6667 7.33333 9.76933 7.33333 8.66667C7.33333 7.564 6.436 6.66667 5.33333 6.66667ZM9.33333 11.3333C9.33333 11.7013 9.03467 12 8.66667 12H2C1.632 12 1.33333 11.7013 1.33333 11.3333V6C1.33333 5.632 1.632 5.33333 2 5.33333H2.66667H4H6.66667H8H8.66667C9.03467 5.33333 9.33333 5.632 9.33333 6V11.3333ZM4 2.74067C4 1.96467 4.598 1.33333 5.33333 1.33333C6.06867 1.33333 6.66667 1.96467 6.66667 2.74067V4H4V2.74067ZM8.66667 4H8V2.74067C8 1.23 6.804 0 5.33333 0C3.86267 0 2.66667 1.23 2.66667 2.74067V4H2C0.897333 4 0 4.89733 0 6V11.3333C0 12.436 0.897333 13.3333 2 13.3333H8.66667C9.76933 13.3333 10.6667 12.436 10.6667 11.3333V6C10.6667 4.89733 9.76933 4 8.66667 4Z" fill="white"/>
</svg>
