<svg width="18" height="18" viewBox="0 0 18 18" fill="none" xmlns="http://www.w3.org/2000/svg">
<path fill-rule="evenodd" clip-rule="evenodd" d="M16 9.833C16 9.281 16.448 8.833 17 8.833C17.552 8.833 18 9.281 18 9.833V15.399C18 16.833 16.833 18 15.4 18H2.6C1.167 18 0 16.833 0 15.399V2.6C0 1.166 1.167 0 2.6 0H12.167C12.719 0 13.167 0.447 13.167 1C13.167 1.552 12.719 2 12.167 2H2.6C2.269 2 2 2.269 2 2.6V15.399C2 15.73 2.269 16 2.6 16H15.4C15.731 16 16 15.73 16 15.399V9.833ZM6.3096 7.946C6.7096 7.564 7.3416 7.58 7.7236 7.979L9.2286 9.557L15.2816 3.304C15.6646 2.908 16.2976 2.896 16.6956 3.281C17.0926 3.665 17.1026 4.298 16.7186 4.695L9.9416 11.695C9.7536 11.89 9.4946 12 9.2236 12H9.2196C8.9476 11.999 8.6876 11.887 8.4996 11.69L6.2766 9.36C5.8946 8.96 5.9106 8.327 6.3096 7.946Z" fill="#A3DE27"/>
</svg>
