<svg width="32" height="32" viewBox="0 0 32 32" fill="none" xmlns="http://www.w3.org/2000/svg">
<path fill-rule="evenodd" clip-rule="evenodd" d="M25.3333 25.3333C25.3333 26.0693 24.7347 26.6666 24 26.6666H8C7.26533 26.6666 6.66667 26.0693 6.66667 25.3333V10.6666C6.66667 9.93063 7.26533 9.33329 8 9.33329V10.6666C8 12.1373 9.196 13.3333 10.6667 13.3333H21.3333C22.804 13.3333 24 12.1373 24 10.6666V9.33329C24.7347 9.33329 25.3333 9.93063 25.3333 10.6666V25.3333ZM10.6667 5.33329L21.3333 5.33729V6.66663V10.6666H10.6667V6.66663V5.33329ZM24 6.66663V5.33329C24 3.86263 22.804 2.66663 21.3333 2.66663H10.6667C9.196 2.66663 8 3.86263 8 5.33329V6.66663C5.79467 6.66663 4 8.46129 4 10.6666V25.3333C4 27.5386 5.79467 29.3333 8 29.3333H24C26.2053 29.3333 28 27.5386 28 25.3333V10.6666C28 8.46129 26.2053 6.66663 24 6.66663Z" fill="#231F20"/>
<mask id="mask0" mask-type="alpha" maskUnits="userSpaceOnUse" x="4" y="2" width="24" height="28">
<path fill-rule="evenodd" clip-rule="evenodd" d="M25.3333 25.3333C25.3333 26.0693 24.7347 26.6666 24 26.6666H8C7.26533 26.6666 6.66667 26.0693 6.66667 25.3333V10.6666C6.66667 9.93063 7.26533 9.33329 8 9.33329V10.6666C8 12.1373 9.196 13.3333 10.6667 13.3333H21.3333C22.804 13.3333 24 12.1373 24 10.6666V9.33329C24.7347 9.33329 25.3333 9.93063 25.3333 10.6666V25.3333ZM10.6667 5.33329L21.3333 5.33729V6.66663V10.6666H10.6667V6.66663V5.33329ZM24 6.66663V5.33329C24 3.86263 22.804 2.66663 21.3333 2.66663H10.6667C9.196 2.66663 8 3.86263 8 5.33329V6.66663C5.79467 6.66663 4 8.46129 4 10.6666V25.3333C4 27.5386 5.79467 29.3333 8 29.3333H24C26.2053 29.3333 28 27.5386 28 25.3333V10.6666C28 8.46129 26.2053 6.66663 24 6.66663Z" fill="white"/>
</mask>
<g mask="url(#mask0)">
<rect width="32" height="32" fill="#C2CFE0"/>
</g>
</svg>
