<svg width="28" height="32" viewBox="0 0 28 32" fill="none" xmlns="http://www.w3.org/2000/svg">
<path d="M21.9198 22.5341L19.0625 21.5665L18.0367 19.4819C18.9608 18.5262 19.6024 17.2616 19.8188 15.9427L19.9467 15.1635H21.0408C22.0352 15.1635 22.8443 14.3415 22.8443 13.331V9.48269C22.8443 4.43042 18.799 0.320068 13.8268 0.320068C8.84182 0.320068 4.80932 4.41863 4.80932 9.48269V13.331C4.80932 14.1273 5.31196 14.8063 6.01165 15.0585V15.7744C6.01165 16.7848 6.8207 17.6069 7.81515 17.6069H8.34309C8.6037 18.1821 8.94101 18.7149 9.35149 19.1935C9.43661 19.2929 9.52541 19.3893 9.61636 19.4831L8.59113 21.5665L5.73374 22.5342C2.41139 23.6598 0 27.2137 0 30.9843C0 31.3217 0.269142 31.5952 0.601165 31.5952H27.0524C27.3844 31.5952 27.6536 31.3217 27.6536 30.9843C27.6536 27.2137 25.2423 23.6598 21.9198 22.5341ZM21.642 13.331C21.642 13.6678 21.3723 13.9418 21.0408 13.9418H20.1233C20.2761 12.7391 20.3779 11.4592 20.4189 10.1986C20.4201 10.163 20.421 10.1285 20.4221 10.0935H21.642V13.331ZM6.61282 13.9418C6.28134 13.9418 6.01165 13.6678 6.01165 13.331V10.0935H7.2319C7.23388 10.1572 7.23599 10.2213 7.23833 10.2857C7.23839 10.2879 7.23851 10.29 7.23857 10.2922C7.23857 10.2924 7.23857 10.2926 7.23857 10.2928C7.28065 11.5189 7.38117 12.7655 7.5305 13.9418H6.61282V13.9418ZM7.81515 16.3852C7.48367 16.3852 7.21398 16.1112 7.21398 15.7744V15.1635H7.70682L7.83475 15.9429C7.85916 16.091 7.88915 16.2386 7.92384 16.3852H7.81515ZM7.21501 8.87185H6.0345C6.33899 4.77793 9.70143 1.54175 13.8268 1.54175C17.9338 1.54175 21.3111 4.7775 21.619 8.87185H20.4387C20.3954 5.49836 17.6918 2.76344 14.3649 2.76344H13.2888C9.96203 2.76344 7.25823 5.49836 7.21501 8.87185ZM13.2888 3.98512H14.3648C17.0586 3.98512 19.2389 6.22392 19.2373 8.95798C19.2373 9.15021 19.2358 9.31758 19.2326 9.46987C19.2326 9.47182 19.2325 9.47384 19.2325 9.47585L18.4806 9.3667C16.4378 9.07032 14.5091 8.0904 13.0496 6.6074C12.9368 6.49287 12.7839 6.42849 12.6245 6.42849C11.01 6.42849 9.46451 7.17591 8.44289 8.43864C8.69465 5.95136 10.764 3.98512 13.2888 3.98512ZM9.17018 16.3852C8.86923 15.368 8.52489 12.3748 8.44878 10.4568L9.25789 9.36059C10.001 8.35417 11.1571 7.72885 12.3869 7.65707C14.005 9.2218 16.0984 10.2551 18.3106 10.576L19.1956 10.7046C19.1365 11.9803 19.0156 13.2605 18.8424 14.4379C18.8423 14.4383 18.8423 14.4387 18.8422 14.4391C18.7871 14.8177 18.7437 15.0613 18.6329 15.7417C18.3145 17.682 16.8896 19.4367 15.0086 19.9145C14.2345 20.1109 13.419 20.1109 12.6453 19.9145C11.4708 19.6162 10.3938 18.7905 9.69884 17.6069H10.9244C11.1725 18.3178 11.8407 18.8286 12.6245 18.8286H13.8268C14.8232 18.8286 15.6303 18.0086 15.6303 16.996C15.6303 15.9856 14.8213 15.1635 13.8268 15.1635H12.6245C11.8233 15.1635 11.165 15.6893 10.9234 16.3852H9.17018ZM12.5739 21.1507C12.9863 21.239 13.4066 21.2842 13.8268 21.2842C14.1557 21.2842 14.4847 21.2562 14.8099 21.2019L13.7476 22.3434L12.5739 21.1507ZM12.9211 23.2315L11.0144 25.2803C10.4894 24.2594 10.0384 23.1968 9.66842 22.109L10.3845 20.6539L12.9211 23.2315ZM17.1672 20.4469L17.9851 22.109C17.6145 23.1986 17.1633 24.2615 16.6389 25.2813L14.5981 23.2076L17.1672 20.4469ZM12.0233 16.996C12.0233 16.6588 12.2925 16.3852 12.6245 16.3852H13.8268C14.1583 16.3852 14.428 16.6592 14.428 16.996C14.428 17.3334 14.1587 17.6069 13.8268 17.6069H12.6245C12.293 17.6069 12.0233 17.3329 12.0233 16.996ZM1.22638 30.3735C1.46462 27.3474 3.4466 24.5969 6.11397 23.6931L8.64452 22.8362C9.10814 24.1389 9.68249 25.405 10.3556 26.6076C10.3568 26.6097 10.3578 26.6117 10.359 26.6138C10.359 26.6138 10.359 26.6138 10.359 26.6139C10.8509 27.4928 11.4044 28.3517 12.0046 29.1671L12.7441 30.3735H1.22638ZM13.8268 29.829L13.0115 28.499C13.0024 28.4841 12.9926 28.4696 12.9823 28.4556C12.4955 27.7957 12.0413 27.1057 11.6277 26.3993L13.7717 24.0956L16.0307 26.391C15.6144 27.1025 15.1587 27.7954 14.6714 28.4554C14.642 28.4953 14.6838 28.4325 13.8268 29.829ZM14.9095 30.3735L15.649 29.1672C16.2518 28.3487 16.8093 27.4829 17.306 26.5936C17.3091 26.5882 17.3119 26.5827 17.3149 26.5773C17.3152 26.5767 17.3156 26.5761 17.316 26.5754C17.9806 25.3842 18.5489 24.1292 19.0091 22.8362L21.5396 23.6931C24.207 24.5969 26.189 27.3474 26.4272 30.3735H14.9095Z" fill="#FF6A35"/>
</svg>
