<svg width="14" height="14" viewBox="0 0 14 14" fill="none" xmlns="http://www.w3.org/2000/svg">
<path fill-rule="evenodd" clip-rule="evenodd" d="M6.98915 2.29291L1.62715 6.60791C1.19715 6.95391 0.568148 6.88591 0.221148 6.45591C-0.124852 6.02491 -0.0568517 5.39591 0.373148 5.04891L6.37315 0.22091C6.74415 -0.0770901 7.27415 -0.0740901 7.64015 0.23291L13.6401 5.23291C14.0651 5.58591 14.1221 6.21591 13.7681 6.64091C13.5701 6.87791 13.2861 7.00091 13.0001 7.00091C12.7741 7.00091 12.5471 6.92391 12.3601 6.76891L6.98915 2.29291ZM6.37325 7.22141C6.74425 6.92241 7.27425 6.92641 7.64025 7.23241L13.6402 12.2324C14.0642 12.5864 14.1212 13.2164 13.7682 13.6404C13.5702 13.8784 13.2862 14.0004 12.9992 14.0004C12.7742 14.0004 12.5472 13.9244 12.3602 13.7684L6.98925 9.29341L1.62725 13.6074C1.19725 13.9544 0.568248 13.8864 0.221248 13.4554C-0.125752 13.0254 -0.0567517 12.3964 0.373248 12.0494L6.37325 7.22141Z" fill="white"/>
</svg>
