<svg width="11" height="14" viewBox="0 0 11 14" fill="none" xmlns="http://www.w3.org/2000/svg">
<path fill-rule="evenodd" clip-rule="evenodd" d="M5.3221 3.53389L1.57744 7.27856L1.40144 9.24923L3.3861 9.06856L7.11944 5.33123L5.3221 3.53389ZM9.31078 3.1379L7.51412 1.3419L6.21545 2.64057L8.01212 4.4379L9.31078 3.1379ZM0.727486 10.6492C0.706819 10.6512 0.686819 10.6519 0.666819 10.6519C0.490819 10.6519 0.320819 10.5826 0.195486 10.4566C0.055486 10.3166 -0.0151807 10.1219 0.00281934 9.92523L0.255486 7.14456C0.283486 6.83989 0.418153 6.55256 0.634819 6.33589L6.63215 0.337894C7.10015 -0.131439 7.94949 -0.108106 8.44282 0.384561L10.2682 2.20989H10.2688C10.7795 2.72123 10.7995 3.53256 10.3142 4.01923L4.31615 10.0172C4.09949 10.2346 3.81282 10.3686 3.50749 10.3966L0.727486 10.6492ZM0.666667 11.9853H10C10.3667 11.9853 10.6667 12.2853 10.6667 12.652C10.6667 13.0186 10.3667 13.3186 10 13.3186H0.666667C0.3 13.3186 0 13.0186 0 12.652C0 12.2853 0.3 11.9853 0.666667 11.9853Z" fill="white"/>
</svg>
