<svg width="112" height="60" viewBox="0 0 112 60" fill="none" xmlns="http://www.w3.org/2000/svg">
<g clip-path="url(#clip0)">
<path d="M16.6517 26.7174V31.0877H11.015V48.1454H5.60889V31.0877H0V26.7174H16.6517Z" fill="white"/>
<path d="M24.4579 26.7175C24.5746 26.7175 27.3637 26.6562 28.975 26.8707C31.792 27.2606 33.031 28.4193 33.7783 29.5697C34.9006 31.2409 34.9006 32.9985 34.9006 33.7004C34.9006 37.1292 33.1171 38.767 31.967 39.4355C29.9835 40.5608 27.2804 40.5274 25.1802 40.5274H24.0023V48.1454H18.6212V26.7175H24.4579ZM25.1774 36.2463C26.1275 36.2463 27.7666 36.3075 28.6 35.639C28.975 35.3354 29.4334 34.7616 29.4334 33.6364C29.4334 33.0598 29.3501 32.5111 29.0334 32.0543C28.2583 30.9011 26.6748 30.993 25.3524 30.993H24.0023V36.2463H25.1774Z" fill="white"/>
<path d="M42.8932 26.7175C43.0099 26.7175 45.799 26.6562 47.4075 26.8707C50.2272 27.2606 51.4635 28.4193 52.2108 29.5697C53.3331 31.2409 53.3331 32.9985 53.3331 33.7004C53.3331 37.1292 51.5496 38.767 50.3995 39.4355C48.4132 40.5608 45.7101 40.5274 43.6127 40.5274H42.432V48.1454H37.0537V26.7175H42.8932ZM43.6127 36.2463C44.56 36.2463 46.1991 36.3075 47.0353 35.639C47.4075 35.3354 47.8687 34.7616 47.8687 33.6364C47.8687 33.0598 47.7826 32.5111 47.4659 32.0543C46.6908 30.9011 45.1073 30.993 43.7877 30.993H42.4348V36.2463H43.6127Z" fill="white"/>
<path d="M3.70592 53.4237V53.9084H2.11965V59.8886H1.5946V53.9084H0V53.4237H3.70592Z" fill="white"/>
<path d="M4.1643 57.6575C4.1643 57.7744 4.13652 58.8942 4.82548 59.3482C4.93938 59.4206 5.15329 59.5432 5.49221 59.5432C6.21173 59.5432 6.44508 59.0279 6.55898 58.7883L7.02847 58.883C6.99236 58.9749 6.93402 59.1476 6.79234 59.3482C6.48953 59.7966 6.01171 59.9972 5.48943 59.9972C4.71713 59.9972 3.65869 59.5237 3.65869 57.663C3.65869 57.4402 3.65036 56.0698 4.54489 55.4375C4.81159 55.2537 5.12551 55.1617 5.44776 55.1617C6.32285 55.1729 6.73122 55.8219 6.8729 56.1143C7.01736 56.4347 7.07848 56.7745 7.09792 56.8831C7.10626 56.9667 7.14237 57.2146 7.14237 57.4513C7.14237 57.5154 7.14237 57.5906 7.13126 57.6547H4.1643V57.6575ZM6.62843 57.2257C6.61177 57.0697 6.59787 56.4932 6.26451 56.0531C6.22284 55.989 6.12005 55.8525 5.94503 55.7522C5.85058 55.6965 5.69223 55.6241 5.42554 55.6241C5.13662 55.6241 4.95605 55.7244 4.85326 55.7996C4.26987 56.1923 4.20041 57.0892 4.18652 57.2369L6.62843 57.2257Z" fill="white"/>
<path d="M8.67026 55.3038C8.73971 55.613 8.74804 55.8804 8.74804 56.0085C8.74804 56.1005 8.73971 56.2007 8.73138 56.2954C8.79249 56.1478 8.85361 56.0085 8.92306 55.8721C9.11197 55.5072 9.39255 55.1674 9.83426 55.1674C9.94816 55.1674 10.1649 55.1952 10.4149 55.3317L10.4065 55.8359C10.2426 55.7551 10.051 55.6632 9.85093 55.6632C9.33421 55.6632 9.03696 56.3317 9.00085 56.3929C8.82861 56.7801 8.77583 57.0726 8.77583 57.8608V59.8914H8.27855V56.9305C8.27855 56.5851 8.28689 56.2342 8.273 55.8888C8.26189 55.6882 8.23688 55.4932 8.22021 55.2927L8.67026 55.3038Z" fill="white"/>
<path d="M11.4983 55.3038C11.5706 55.5127 11.5789 55.7161 11.5872 55.9361C11.64 55.8247 11.6817 55.7328 11.7595 55.6408C11.915 55.4403 12.2401 55.1646 12.829 55.1646C13.6458 55.1646 13.8875 55.652 14.0097 55.9807C14.0264 55.9528 14.0597 55.8609 14.1236 55.769C14.2764 55.5183 14.6514 55.1646 15.3376 55.1646C15.9682 55.1646 16.2988 55.4849 16.4405 55.7328C16.6294 56.0893 16.5961 56.638 16.5961 57.0224V59.8886H16.1182V57.0224C16.1182 56.8748 16.1266 56.7383 16.1182 56.5907C16.1099 56.2815 16.0682 55.6214 15.2154 55.6214C15.1542 55.6214 14.9653 55.6297 14.7931 55.7021C14.4014 55.8665 14.2542 56.2146 14.2097 56.3539C14.1264 56.6018 14.1153 56.8692 14.1153 57.131V59.8886H13.6208V57.1227C13.6208 56.574 13.6291 56.2982 13.5069 56.0419C13.4735 55.9612 13.4041 55.8386 13.2318 55.7411C13.0846 55.6576 12.9096 55.6214 12.7457 55.6214C12.504 55.6214 12.2956 55.6966 12.0928 55.8414C11.6678 56.1617 11.615 56.6659 11.615 57.17V59.8914H11.1372V56.8219C11.1372 56.2926 11.165 55.8135 11.0316 55.2927L11.4983 55.3038Z" fill="white"/>
<path d="M18.6185 53.7802C18.6185 54.0198 18.4435 54.2092 18.2073 54.2008C17.9823 54.2008 17.7934 54.0281 17.7989 53.7802C17.7989 53.5435 17.9629 53.3513 18.1907 53.3429C18.4351 53.3262 18.6185 53.524 18.6185 53.7802ZM18.4768 59.8886H17.9462V55.2899H18.4768V59.8886Z" fill="white"/>
<path d="M20.2215 55.3038C20.2937 55.5406 20.3021 55.5879 20.3104 55.9918C20.3271 55.9445 20.3799 55.8525 20.4493 55.7523C20.7438 55.3484 21.1688 55.1646 21.6466 55.1646C22.1939 55.1646 22.5245 55.3846 22.6801 55.5573C22.7134 55.6046 22.7745 55.6687 22.8356 55.7885C23.0079 56.1227 23.019 56.4932 23.019 57.2536V59.8914H22.5412V57.2257C22.5412 56.6492 22.5328 56.3539 22.4189 56.0893C22.3856 56.0169 22.3162 55.8888 22.1578 55.7773C21.9439 55.6297 21.6883 55.6214 21.6133 55.6214C21.266 55.6214 21.041 55.7495 20.9271 55.8303C20.3021 56.2536 20.3382 57.0391 20.3382 57.2508V59.8886H19.8604V56.8302C19.8604 56.223 19.8687 55.9222 19.827 55.6269C19.8104 55.5155 19.7826 55.3985 19.7576 55.2899L20.2215 55.3038Z" fill="white"/>
<path d="M24.2746 56.4486C24.2829 56.3818 24.2996 56.2369 24.3524 56.0782C24.4913 55.652 24.8719 55.1646 25.8192 55.1646C25.9498 55.1646 26.8943 55.1534 27.1665 55.9361C27.2277 56.1255 27.2527 56.457 27.2527 56.9416V58.6184C27.2527 59.312 27.261 59.5348 27.3666 59.8914H26.8887C26.8387 59.6992 26.8026 59.5989 26.7776 59.2424C26.7498 59.2981 26.7054 59.3788 26.622 59.4875C26.3331 59.8551 25.9275 60.0083 25.4914 60C25.3969 60 25.1691 60 24.9358 59.9081C24.6663 59.8078 24.1301 59.4958 24.1301 58.6825C24.1301 58.4625 24.1635 58.0224 24.5718 57.6463C24.6552 57.5739 24.7885 57.4709 25.0247 57.3622C25.4747 57.1505 26.2831 56.9751 26.7776 56.8915V56.6547C26.7776 56.2425 26.7359 56.0754 26.5915 55.9138C26.3415 55.6102 25.9164 55.6186 25.8192 55.6186C25.0302 55.6186 24.8385 56.067 24.7691 56.4458H24.2746V56.4486ZM26.7748 57.2982C26.5137 57.3511 26.2637 57.4151 26.0025 57.4904C25.4469 57.6463 24.6246 57.8747 24.633 58.6714C24.633 58.7382 24.633 58.8635 24.6941 59.0112C24.7719 59.2229 24.9997 59.5432 25.5275 59.5432C25.6997 59.5432 26.2109 59.507 26.5331 59.0195C26.7582 58.6658 26.7776 58.2313 26.7776 57.8302V57.2982H26.7748Z" fill="white"/>
<path d="M29.1529 53.3959H28.6251V59.8886H29.1529V53.3959Z" fill="white"/>
<path d="M30.792 57.6575C30.792 57.7744 30.7642 58.8942 31.4504 59.3482C31.5643 59.4206 31.781 59.5432 32.1199 59.5432C32.8394 59.5432 33.0728 59.0279 33.1867 58.7883L33.6562 58.883C33.6228 58.9749 33.5589 59.1476 33.42 59.3482C33.1172 59.7966 32.6394 59.9972 32.1199 59.9972C31.3476 59.9972 30.2864 59.5237 30.2864 57.663C30.2864 57.4402 30.278 56.0698 31.1726 55.4375C31.4393 55.2537 31.7532 55.1617 32.0754 55.1617C32.9505 55.1729 33.3589 55.8219 33.495 56.1143C33.6423 56.4347 33.7034 56.7745 33.7228 56.8831C33.7312 56.9667 33.7673 57.2146 33.7673 57.4513C33.7673 57.5154 33.7673 57.5906 33.7589 57.6547H30.792V57.6575ZM33.2561 57.2257C33.2394 57.0697 33.2228 56.4932 32.8922 56.0531C32.8505 55.989 32.7477 55.8525 32.5727 55.7522C32.4783 55.6965 32.3199 55.6241 32.0504 55.6241C31.7643 55.6241 31.5837 55.7244 31.4809 55.7996C30.8976 56.1923 30.8281 57.0892 30.8114 57.2369L33.2561 57.2257Z" fill="white"/>
<path d="M37.1536 56.521C37.1342 56.3929 37.1342 56.3456 37.1008 56.2174C37.0064 55.9082 36.798 55.7356 36.5036 55.6603C36.4341 55.652 36.3397 55.6214 36.1924 55.6214C35.7479 55.6214 35.2896 55.8581 35.2896 56.4013C35.2896 56.4542 35.3007 56.5767 35.3618 56.6937C35.4646 56.9026 35.659 56.9778 35.8563 57.0586C36.2619 57.2313 36.7064 57.3065 37.0953 57.5154C37.5203 57.7355 37.712 58.0836 37.712 58.5878C37.712 59.5404 37.0342 59.9972 36.2035 59.9972C35.9841 59.9972 35.0201 59.9888 34.7256 59.0836C34.6478 58.844 34.6478 58.5878 34.6478 58.5042L35.1257 58.5154C35.134 58.6686 35.1479 58.7605 35.2034 58.9192C35.2979 59.1866 35.5674 59.5432 36.2035 59.5432C36.7314 59.5432 37.1981 59.2646 37.1981 58.6435C37.1981 58.5237 37.1814 58.4151 37.137 58.3037C37.0592 58.1393 36.9481 58.0112 36.6369 57.8942C36.3397 57.7717 36.0285 57.702 35.734 57.5934C35.5007 57.4987 35.2479 57.3817 35.0645 57.1895C34.959 57.0698 34.7951 56.8219 34.7951 56.4096C34.7951 56.2982 34.8034 56.0614 34.9423 55.8135C35.0979 55.5378 35.4701 55.1646 36.2008 55.1646C36.3035 55.1646 36.5452 55.1757 36.8064 55.2732C37.5592 55.5489 37.612 56.2258 37.6203 56.521H37.1536Z" fill="white"/>
<path d="M41.9543 53.4237C43.1627 53.4237 43.7072 53.4794 44.1823 53.9557C44.2795 54.056 44.4629 54.251 44.5768 54.588C44.6268 54.7356 44.6907 54.9724 44.6907 55.3289C44.6907 55.5935 44.6546 56.4542 43.8989 56.8943C43.3711 57.2063 42.6488 57.17 42.0765 57.17H41.6237V59.8914H41.0764V53.4237H41.9543ZM42.0598 56.6826C42.3099 56.6826 42.5627 56.6826 42.8238 56.6659C43.4655 56.6074 43.7239 56.4458 43.91 56.1506C44.0128 55.9974 44.1184 55.7579 44.1184 55.3178C44.1184 54.9083 44.0073 54.4766 43.685 54.2092C43.3294 53.9251 42.8349 53.9084 41.9404 53.9084H41.6042V56.6826H42.0598Z" fill="white"/>
<path d="M45.8073 56.0057C45.9657 55.7495 46.4074 55.1646 47.2519 55.1646C47.6325 55.1646 47.927 55.3094 48.0492 55.3762C48.8048 55.8163 49.066 56.7606 49.066 57.5934C49.066 57.7494 49.0549 58.0864 48.9604 58.4708C48.7354 59.3398 48.1464 59.9972 47.2436 59.9972C47.1213 59.9972 46.8074 59.9888 46.4963 59.8273C46.0129 59.5682 45.4295 58.9109 45.4295 57.5934C45.4267 57.0419 45.5128 56.4848 45.8073 56.0057ZM46.5213 59.2758C46.6324 59.376 46.8658 59.5432 47.2491 59.5432C47.5519 59.5432 47.7686 59.4234 47.8547 59.3593C48.5659 58.8663 48.5576 57.7494 48.5576 57.5934C48.5576 57.4263 48.5659 56.3706 47.9159 55.8609C47.8103 55.7773 47.5936 55.6241 47.2408 55.6241C47.1352 55.6241 46.8908 55.6409 46.6491 55.7996C45.9212 56.2843 45.9296 57.4458 45.9296 57.6018C45.9296 57.7745 45.9129 58.7549 46.5213 59.2758Z" fill="white"/>
<path d="M50.58 55.3038C50.6495 55.613 50.6578 55.8804 50.6578 56.0085C50.6578 56.1005 50.6495 56.2007 50.6411 56.2954C50.7023 56.1478 50.7634 56.0085 50.8328 55.8721C51.0217 55.5072 51.3023 55.1674 51.744 55.1674C51.8579 55.1674 52.0746 55.1952 52.3246 55.3317L52.3163 55.8359C52.1524 55.7551 51.9635 55.6632 51.7607 55.6632C51.2384 55.6632 50.9467 56.3317 50.9078 56.3929C50.7356 56.7801 50.6856 57.0726 50.6856 57.8608V59.8914H50.1883V56.9305C50.1883 56.5851 50.1966 56.2342 50.1772 55.8888C50.1689 55.6882 50.1466 55.4932 50.1272 55.2927L50.58 55.3038Z" fill="white"/>
<path d="M54.8331 55.2927V55.7133H53.7386L53.6941 58.2313C53.6941 58.4513 53.6858 58.663 53.6941 58.8719C53.6941 58.8998 53.6858 59.1393 53.7386 59.2758C53.8414 59.532 54.1275 59.5432 54.1914 59.5432C54.2942 59.5432 54.5553 59.507 54.8137 59.3872L54.8054 59.8551C54.6942 59.8997 54.4331 59.9833 54.1025 59.9833C54.0247 59.9833 53.3997 60 53.2358 59.507C53.1996 59.3955 53.183 59.2646 53.183 59.0195C53.183 58.7466 53.1996 58.4792 53.208 58.2034L53.2608 55.7133H52.6079L52.6162 55.2927H53.2663L53.2913 53.9724H53.7608L53.7414 55.2927H54.8331Z" fill="white"/>
<path d="M56.2471 55.2927V58.17C56.2471 58.6296 56.2221 59.1505 56.6694 59.4151C56.7666 59.4708 56.9222 59.546 57.1917 59.546C57.5723 59.546 57.7806 59.3789 57.8945 59.2786C57.9362 59.2424 58.0418 59.1421 58.1279 59.0056C58.2751 58.7466 58.3362 58.5098 58.3362 57.9444V55.2955H58.8057V58.5015C58.8057 59.2424 58.7974 59.5182 58.9085 59.8942H58.4224C58.3446 59.6296 58.3335 59.5209 58.3335 59.2424C58.1973 59.5349 57.9445 60.0028 57.1833 60.0028C57.0083 60.0028 56.411 59.975 56.0443 59.4736C55.7499 59.0781 55.7665 58.6213 55.7665 58.145V55.2955H56.2471V55.2927Z" fill="white"/>
<path d="M60.0838 56.4486C60.0949 56.3818 60.1088 56.2369 60.1643 56.0782C60.3004 55.652 60.681 55.1646 61.6311 55.1646C61.7589 55.1646 62.7062 55.1534 62.9757 55.9361C63.0368 56.1255 63.0646 56.457 63.0646 56.9416V58.6184C63.0646 59.312 63.0729 59.5348 63.1757 59.8914H62.6979C62.6479 59.6992 62.609 59.5989 62.5868 59.2424C62.559 59.2981 62.5173 59.3788 62.4284 59.4875C62.1423 59.8551 61.7367 60.0083 61.3005 60C61.2033 60 60.9783 60 60.7449 59.9081C60.4755 59.8078 59.9365 59.4958 59.9365 58.6825C59.9365 58.4625 59.9726 58.0224 60.381 57.6463C60.4699 57.5739 60.5977 57.4709 60.8338 57.3622C61.2839 57.1505 62.0895 56.9751 62.5868 56.8915V56.6547C62.5868 56.2425 62.5423 56.0754 62.4062 55.9138C62.1534 55.6102 61.7284 55.6186 61.6339 55.6186C60.8422 55.6186 60.6533 56.067 60.5838 56.4458H60.0838V56.4486ZM62.584 57.2982C62.3201 57.3511 62.0728 57.4151 61.8117 57.4904C61.2561 57.6463 60.431 57.8747 60.4393 58.6714C60.4393 58.7382 60.4393 58.8635 60.5005 59.0112C60.5783 59.2229 60.8033 59.5432 61.3311 59.5432C61.5061 59.5432 62.0173 59.507 62.3368 59.0195C62.5618 58.6658 62.5812 58.2313 62.5812 57.8302V57.2982H62.584Z" fill="white"/>
<path d="M64.823 55.3038C64.8952 55.613 64.9036 55.8804 64.9036 56.0085C64.9036 56.1005 64.8952 56.2007 64.8869 56.2954C64.948 56.1478 65.0091 56.0085 65.0786 55.8721C65.2675 55.5072 65.5453 55.1674 65.9898 55.1674C66.1037 55.1674 66.3204 55.1952 66.5704 55.3317L66.5621 55.8359C66.3954 55.7551 66.2065 55.6632 66.0065 55.6632C65.487 55.6632 65.1897 56.3317 65.1564 56.3929C64.9813 56.7801 64.9313 57.0726 64.9313 57.8608V59.8914H64.4341V56.9305C64.4341 56.5851 64.4424 56.2342 64.4257 55.8888C64.4174 55.6882 64.3924 55.4932 64.3757 55.2927L64.823 55.3038Z" fill="white"/>
<path d="M67.9457 53.7802C67.9457 54.0198 67.7707 54.2092 67.5401 54.2008C67.3123 54.2008 67.1234 54.0281 67.1345 53.7802C67.1345 53.5435 67.2984 53.3513 67.5234 53.3429C67.7623 53.3262 67.9457 53.524 67.9457 53.7802ZM67.8096 59.8886H67.279V55.2899H67.8096V59.8886Z" fill="white"/>
<path d="M69.3179 56.0057C69.4735 55.7495 69.9152 55.1646 70.757 55.1646C71.1403 55.1646 71.4348 55.3094 71.5571 55.3762C72.3099 55.8163 72.5711 56.7606 72.5711 57.5934C72.5711 57.7494 72.5627 58.0864 72.4683 58.4708C72.2405 59.3398 71.6515 59.9972 70.7486 59.9972C70.6264 59.9972 70.3125 59.9888 70.0013 59.8273C69.5152 59.5682 68.9346 58.9109 68.9346 57.5934C68.9373 57.0419 69.0235 56.4848 69.3179 56.0057ZM70.0291 59.2758C70.1402 59.376 70.3764 59.5432 70.757 59.5432C71.0626 59.5432 71.2765 59.4234 71.3654 59.3593C72.0766 58.8663 72.0654 57.7494 72.0654 57.5934C72.0654 57.4263 72.0766 56.3706 71.4237 55.8609C71.3181 55.7773 71.1015 55.6241 70.7459 55.6241C70.6403 55.6241 70.3986 55.6409 70.1541 55.7996C69.4263 56.2843 69.4346 57.4458 69.4346 57.6018C69.4402 57.7745 69.4235 58.7549 70.0291 59.2758Z" fill="white"/>
<path d="M75.9492 56.521C75.9325 56.3929 75.9325 56.3456 75.8964 56.2174C75.8019 55.9082 75.5936 55.7356 75.2991 55.6603C75.2296 55.652 75.1324 55.6214 74.988 55.6214C74.5435 55.6214 74.0851 55.8581 74.0851 56.4013C74.0851 56.4542 74.0934 56.5767 74.1545 56.6937C74.2573 56.9026 74.4518 56.9778 74.649 57.0586C75.0574 57.2313 75.4991 57.3065 75.8908 57.5154C76.3159 57.7355 76.5103 58.0836 76.5103 58.5878C76.5103 59.5404 75.8325 59.9972 74.9991 59.9972C74.7796 59.9972 73.8184 59.9888 73.5211 59.0836C73.4434 58.844 73.4434 58.5878 73.4434 58.5042L73.9212 58.5154C73.9295 58.6686 73.949 58.7605 74.0018 58.9192C74.0962 59.1866 74.3657 59.5432 74.9991 59.5432C75.5269 59.5432 75.9964 59.2646 75.9964 58.6435C75.9964 58.5237 75.9797 58.4151 75.9353 58.3037C75.8547 58.1393 75.7436 58.0112 75.4324 57.8942C75.1352 57.7717 74.8241 57.702 74.5296 57.5934C74.2962 57.4987 74.0406 57.3817 73.8601 57.1895C73.7573 57.0698 73.5906 56.8219 73.5906 56.4096C73.5906 56.2982 73.5989 56.0614 73.7406 55.8135C73.8934 55.5378 74.2657 55.1646 74.9991 55.1646C75.1019 55.1646 75.3436 55.1757 75.6075 55.2732C76.3631 55.5489 76.4159 56.2258 76.4242 56.521H75.9492Z" fill="white"/>
<path d="M80.747 53.4237C81.9555 53.4237 82.5 53.4794 82.9806 53.9557C83.075 54.056 83.2556 54.251 83.3667 54.588C83.4195 54.7356 83.4806 54.9724 83.4806 55.3289C83.4806 55.5935 83.4473 56.4542 82.6916 56.8943C82.161 57.2063 81.4415 57.17 80.8692 57.17H80.4192V59.8914H79.8691V53.4237H80.747ZM80.8526 56.6826C81.1026 56.6826 81.3554 56.6826 81.6165 56.6659C82.2583 56.6074 82.5194 56.4458 82.7028 56.1506C82.8055 55.9974 82.9111 55.7579 82.9111 55.3178C82.9111 54.9083 82.7972 54.4766 82.4777 54.2092C82.1194 53.9251 81.6276 53.9084 80.7331 53.9084H80.3942V56.6826H80.8526Z" fill="white"/>
<path d="M84.5501 57.6575C84.5501 57.7744 84.5223 58.8942 85.2113 59.3482C85.3224 59.4206 85.5391 59.5432 85.8808 59.5432C86.6003 59.5432 86.8337 59.0279 86.9476 58.7883L87.4171 58.883C87.3837 58.9749 87.3226 59.1476 87.1837 59.3482C86.8781 59.7966 86.4031 59.9972 85.8836 59.9972C85.1085 59.9972 84.0501 59.5237 84.0501 57.663C84.0501 57.4402 84.0417 56.0698 84.939 55.4375C85.2057 55.2537 85.5196 55.1617 85.8391 55.1617C86.717 55.1729 87.1226 55.8219 87.2643 56.1143C87.4115 56.4347 87.4726 56.7745 87.4921 56.8831C87.5004 56.9667 87.5337 57.2146 87.5337 57.4513C87.5337 57.5154 87.5337 57.5906 87.5254 57.6547H84.5501V57.6575ZM87.017 57.2257C86.9976 57.0697 86.9837 56.4932 86.6531 56.0531C86.6114 55.989 86.5059 55.8525 86.3308 55.7522C86.2364 55.6965 86.078 55.6241 85.8113 55.6241C85.5252 55.6241 85.3419 55.7244 85.2363 55.7996C84.6557 56.1923 84.5862 57.0892 84.5668 57.2369L87.017 57.2257Z" fill="white"/>
<path d="M89.0533 55.3038C89.1255 55.613 89.131 55.8804 89.131 56.0085C89.131 56.1005 89.1255 56.2007 89.1144 56.2954C89.1755 56.1478 89.2366 56.0085 89.3061 55.8721C89.495 55.5072 89.7728 55.1674 90.2173 55.1674C90.3284 55.1674 90.5478 55.1952 90.7979 55.3317L90.7895 55.8359C90.6229 55.7551 90.4339 55.6632 90.2311 55.6632C89.7117 55.6632 89.4172 56.3317 89.3811 56.3929C89.206 56.7801 89.156 57.0726 89.156 57.8608V59.8914H88.6588V56.9305C88.6588 56.5851 88.6671 56.2342 88.6504 55.8888C88.6393 55.6882 88.6171 55.4932 88.5977 55.2927L89.0533 55.3038Z" fill="white"/>
<path d="M91.962 55.2927V58.17C91.962 58.6296 91.937 59.1505 92.387 59.4151C92.4815 59.4708 92.6398 59.546 92.9093 59.546C93.2899 59.546 93.4982 59.3789 93.6094 59.2786C93.6538 59.2424 93.7594 59.1421 93.8427 59.0056C93.99 58.7466 94.0511 58.5098 94.0511 57.9444V55.2955H94.5206V58.5015C94.5206 59.2424 94.5122 59.5182 94.6234 59.8942H94.1372C94.0594 59.6296 94.0511 59.5209 94.0511 59.2424C93.9122 59.5349 93.6594 60.0028 92.8954 60.0028C92.7204 60.0028 92.1259 59.975 91.7592 59.4736C91.4647 59.0781 91.4814 58.6213 91.4814 58.145V55.2955H91.962V55.2927Z" fill="white"/>
<path d="M95.7984 56.4486C95.8068 56.3818 95.8262 56.2369 95.879 56.0782C96.0179 55.652 96.4013 55.1646 97.3458 55.1646C97.4764 55.1646 98.4209 55.1534 98.6904 55.9361C98.7515 56.1255 98.7793 56.457 98.7793 56.9416V58.6184C98.7793 59.312 98.7876 59.5348 98.8904 59.8914H98.4153C98.3626 59.6992 98.3264 59.5989 98.3014 59.2424C98.2764 59.2981 98.232 59.3788 98.1459 59.4875C97.857 59.8551 97.4541 60.0083 97.018 60C96.9235 60 96.6957 60 96.4624 59.9081C96.1957 59.8078 95.6567 59.4958 95.6567 58.6825C95.6567 58.4625 95.6901 58.0224 96.0985 57.6463C96.1874 57.5739 96.3179 57.4709 96.5485 57.3622C97.0013 57.1505 97.807 56.9751 98.3014 56.8915V56.6547C98.3014 56.2425 98.257 56.0754 98.1209 55.9138C97.8681 55.6102 97.443 55.6186 97.3486 55.6186C96.5596 55.6186 96.3651 56.067 96.2985 56.4458H95.7984V56.4486ZM98.2987 57.2982C98.0375 57.3511 97.7875 57.4151 97.5236 57.4904C96.9708 57.6463 96.1457 57.8747 96.154 58.6714C96.154 58.7382 96.154 58.8635 96.2123 59.0112C96.2929 59.2229 96.5179 59.5432 97.0458 59.5432C97.2208 59.5432 97.7319 59.507 98.0514 59.0195C98.2792 58.6658 98.2931 58.2313 98.2931 57.8302V57.2982H98.2987Z" fill="white"/>
<path d="M100.518 55.3038C100.591 55.5406 100.599 55.5879 100.607 55.9918C100.624 55.9445 100.677 55.8525 100.746 55.7523C101.041 55.3484 101.466 55.1646 101.944 55.1646C102.491 55.1646 102.821 55.3846 102.977 55.5573C103.01 55.6046 103.071 55.6687 103.13 55.7885C103.305 56.1227 103.316 56.4932 103.316 57.2536V59.8914H102.838V57.2257C102.838 56.6492 102.83 56.3539 102.716 56.0893C102.682 56.0169 102.613 55.8888 102.457 55.7773C102.241 55.6297 101.988 55.6214 101.91 55.6214C101.563 55.6214 101.338 55.7495 101.224 55.8303C100.599 56.2536 100.635 57.0391 100.635 57.2508V59.8886H100.157V56.8302C100.157 56.223 100.168 55.9222 100.124 55.6269C100.107 55.5155 100.079 55.3985 100.054 55.2899L100.518 55.3038Z" fill="white"/>
<path d="M104.808 56.0057C104.963 55.7495 105.408 55.1646 106.247 55.1646C106.63 55.1646 106.925 55.3094 107.047 55.3762C107.8 55.8163 108.064 56.7606 108.064 57.5934C108.064 57.7494 108.055 58.0864 107.958 58.4708C107.733 59.3398 107.144 59.9972 106.241 59.9972C106.119 59.9972 105.808 59.9888 105.494 59.8273C105.008 59.5682 104.427 58.9109 104.427 57.5934C104.424 57.0419 104.51 56.4848 104.808 56.0057ZM105.519 59.2758C105.633 59.376 105.866 59.5432 106.247 59.5432C106.549 59.5432 106.766 59.4234 106.855 59.3593C107.566 58.8663 107.558 57.7494 107.558 57.5934C107.558 57.4263 107.566 56.3706 106.916 55.8609C106.813 55.7773 106.597 55.6241 106.241 55.6241C106.136 55.6241 105.894 55.6409 105.652 55.7996C104.924 56.2843 104.933 57.4458 104.933 57.6018C104.93 57.7745 104.91 58.7549 105.519 59.2758Z" fill="white"/>
<path d="M111.436 56.521C111.419 56.3929 111.419 56.3456 111.386 56.2174C111.292 55.9082 111.083 55.7356 110.786 55.6603C110.716 55.652 110.622 55.6214 110.475 55.6214C110.03 55.6214 109.572 55.8581 109.572 56.4013C109.572 56.4542 109.583 56.5767 109.644 56.6937C109.747 56.9026 109.939 56.9778 110.139 57.0586C110.547 57.2313 110.989 57.3065 111.378 57.5154C111.805 57.7355 111.994 58.0836 111.994 58.5878C111.994 59.5404 111.317 59.9972 110.483 59.9972C110.266 59.9972 109.302 59.9888 109.008 59.0836C108.93 58.844 108.93 58.5878 108.93 58.5042L109.408 58.5154C109.414 58.6686 109.43 58.7605 109.486 58.9192C109.583 59.1866 109.85 59.5432 110.483 59.5432C111.014 59.5432 111.483 59.2646 111.483 58.6435C111.483 58.5237 111.467 58.4151 111.422 58.3037C111.344 58.1393 111.233 58.0112 110.919 57.8942C110.625 57.7717 110.314 57.702 110.016 57.5934C109.78 57.4987 109.527 57.3817 109.347 57.1895C109.241 57.0698 109.077 56.8219 109.077 56.4096C109.077 56.2982 109.086 56.0614 109.225 55.8135C109.38 55.5378 109.752 55.1646 110.48 55.1646C110.586 55.1646 110.828 55.1757 111.089 55.2732C111.844 55.5489 111.894 56.2258 111.903 56.521H111.436Z" fill="white"/>
<path d="M90.6646 0H112V21.3918H103.457V8.56785H90.6646V0Z" fill="#FF6C37"/>
<path d="M90.6646 26.7565H112V48.1454H103.457V35.3215H90.6646V26.7565Z" fill="#FF6C37"/>
<path d="M63.998 26.7565H85.3335V48.1454H76.791V35.3215H63.998V26.7565Z" fill="#FF6C37"/>
</g>
<defs>
<clipPath id="clip0">
<rect width="112" height="60" fill="white"/>
</clipPath>
</defs>
</svg>
