<svg width="14" height="14" viewBox="0 0 14 14" fill="none" xmlns="http://www.w3.org/2000/svg">
<path fill-rule="evenodd" clip-rule="evenodd" d="M6.66667 13.3333C2.99067 13.3333 0 10.3427 0 6.66667C0 2.99067 2.99067 0 6.66667 0C10.3427 0 13.3333 2.99067 13.3333 6.66667C13.3333 10.3427 10.3427 13.3333 6.66667 13.3333ZM6.66667 1.33333C3.726 1.33333 1.33333 3.726 1.33333 6.66667C1.33333 9.60733 3.726 12 6.66667 12C9.60733 12 12 9.60733 12 6.66667C12 3.726 9.60733 1.33333 6.66667 1.33333ZM7.01524 6.21198L7.41212 6.30417C8.42462 6.55417 9.11368 7.03854 9.11524 8.12292C9.11524 9.29792 8.24024 9.9526 7.0168 10.0604L7.01993 10.5557C7.01993 10.626 6.96368 10.6823 6.89493 10.6823H6.45118C6.38243 10.6823 6.32618 10.626 6.32618 10.5573V10.0667C4.93555 9.9651 4.28399 9.17448 4.21368 8.3151C4.20743 8.24167 4.26524 8.17917 4.33868 8.17917H5.06055C5.12149 8.17917 5.17462 8.22292 5.18399 8.28229C5.26368 8.77917 5.65118 9.14792 6.3418 9.2401V7.01042L5.95587 6.91198C5.13868 6.71667 4.36055 6.20729 4.36055 5.15104C4.36055 4.01042 5.22618 3.39948 6.33243 3.29167V2.77604C6.33243 2.70729 6.38868 2.65104 6.45743 2.65104H6.89649C6.96524 2.65104 7.02149 2.70729 7.02149 2.77604V3.28698C8.0918 3.39479 8.89337 4.01979 8.98868 4.99323C8.99493 5.06667 8.93712 5.13073 8.86368 5.13073H8.16212C8.09962 5.13073 8.04649 5.08542 8.03868 5.02292C7.97618 4.56667 7.60899 4.19479 7.01524 4.11354V6.21198ZM6.10587 5.97292C6.1793 6.0026 6.25274 6.02604 6.34024 6.05104V4.11354C5.76212 4.18698 5.33243 4.51042 5.33243 5.0776C5.33243 5.47448 5.57774 5.78229 6.10587 5.97292ZM7.01524 7.15573V9.24479C7.68087 9.18542 8.14024 8.81823 8.14024 8.20729C8.14024 7.7276 7.8918 7.4151 7.15274 7.1901C7.10743 7.18073 7.06368 7.16979 7.01524 7.15573Z" fill="white"/>
</svg>
