<svg width="26" height="24" viewBox="0 0 26 24" fill="none" xmlns="http://www.w3.org/2000/svg">
<path fill-rule="evenodd" clip-rule="evenodd" d="M18.1159 10.3704L13.7648 12.4853V7.11317L18.353 4.88383V10.0312C18.353 10.1704 18.2628 10.3 18.1159 10.3704ZM7.87884 10.3712C7.73432 10.3008 7.64561 10.1712 7.64714 10.0256V4.88383L12.2354 7.11317V12.4869L7.87884 10.3712ZM12.776 1.6522C12.8456 1.6178 12.9228 1.60101 13.0001 1.60101C13.0765 1.60101 13.1538 1.6178 13.2234 1.6522L17.2985 3.63117L13.0001 5.72053L8.7009 3.63117L12.776 1.6522ZM19.6194 3.408C19.6171 3.4016 19.6178 3.3944 19.6148 3.38801C19.6125 3.38161 19.6064 3.37761 19.6025 3.37121C19.5674 3.31041 19.5245 3.25682 19.484 3.20083C19.4603 3.17363 19.4412 3.14323 19.4152 3.12004C19.2355 2.89926 19.0236 2.70488 18.7606 2.5777L13.8665 0.199577C13.8657 0.199577 13.865 0.199577 13.865 0.198777C13.3151 -0.0667918 12.6843 -0.0659918 12.1329 0.199577L7.24109 2.5769C6.97803 2.70409 6.76544 2.89766 6.58574 3.11844C6.55744 3.14323 6.5368 3.17683 6.51156 3.20643C6.4718 3.26002 6.43127 3.31201 6.39762 3.36961C6.3938 3.37681 6.38768 3.38161 6.38462 3.38801C6.38156 3.3952 6.38233 3.4024 6.37927 3.4096C6.21792 3.69917 6.11774 4.02473 6.11774 4.36709V10.02C6.11162 10.7799 6.54903 11.4871 7.23268 11.8214L12.126 14.1987C12.4028 14.3339 12.6995 14.4011 12.997 14.4011C13.2937 14.4011 13.5904 14.3339 13.8665 14.1995L18.7583 11.8222C19.4404 11.4927 19.8816 10.7903 19.8824 10.032V4.36629C19.8816 4.02393 19.7815 3.69837 19.6194 3.408Z" fill="#C2CFE0"/>
<path fill-rule="evenodd" clip-rule="evenodd" d="M11.9983 19.9693L7.6471 22.0842V16.7121L12.2353 14.4827V19.6301C12.2353 19.7693 12.1451 19.8989 11.9983 19.9693ZM1.76117 19.9701C1.61664 19.8997 1.52794 19.7701 1.52947 19.6245V14.4827L6.11769 16.7121V22.0858L1.76117 19.9701ZM6.65837 11.2511C6.72796 11.2167 6.80519 11.1999 6.88243 11.1999C6.9589 11.1999 7.03613 11.2167 7.10572 11.2511L11.1808 13.2301L6.88243 15.3194L2.58326 13.2301L6.65837 11.2511ZM13.5017 13.0069C13.4994 13.0005 13.5001 12.9933 13.4971 12.9869C13.4948 12.9805 13.4887 12.9765 13.4849 12.9701C13.4497 12.9093 13.4069 12.8557 13.3663 12.7997C13.3426 12.7725 13.3235 12.7421 13.2975 12.7189C13.1178 12.4981 12.906 12.3038 12.6429 12.1766L7.74881 9.79845C7.74804 9.79845 7.74728 9.79845 7.74728 9.79765C7.19746 9.53209 6.56658 9.53289 6.01522 9.79845L1.12341 12.1758C0.860355 12.303 0.647768 12.4965 0.468062 12.7173C0.439768 12.7421 0.419121 12.7757 0.393886 12.8053C0.354121 12.8589 0.313592 12.9109 0.279945 12.9685C0.276121 12.9757 0.270004 12.9805 0.266945 12.9869C0.263886 12.9941 0.264651 13.0013 0.261592 13.0085C0.10024 13.298 6.33507e-05 13.6236 6.33507e-05 13.966V19.6189C-0.00605428 20.3788 0.431356 21.0859 1.115 21.4203L6.00834 23.7976C6.28517 23.9328 6.58187 24 6.87934 24C7.17605 24 7.47275 23.9328 7.74881 23.7984L12.6406 21.4211C13.3227 21.0915 13.764 20.3892 13.7647 19.6309V13.9652C13.764 13.6228 13.6638 13.2972 13.5017 13.0069Z" fill="#C2CFE0"/>
<path fill-rule="evenodd" clip-rule="evenodd" d="M24.2336 19.9693L19.8824 22.0842V16.7121L24.4707 14.4827V19.6301C24.4707 19.7693 24.3804 19.8989 24.2336 19.9693ZM13.9965 19.9701C13.852 19.8997 13.7633 19.7701 13.7648 19.6245V14.4827L18.353 16.7121V22.0858L13.9965 19.9701ZM18.8937 11.2511C18.9633 11.2167 19.0405 11.1999 19.1177 11.1999C19.1942 11.1999 19.2714 11.2167 19.341 11.2511L23.4161 13.2301L19.1177 15.3194L14.8186 13.2301L18.8937 11.2511ZM25.737 13.0069C25.7347 13.0005 25.7355 12.9933 25.7324 12.9869C25.7301 12.9805 25.724 12.9765 25.7202 12.9701C25.685 12.9093 25.6422 12.8557 25.6017 12.7997C25.578 12.7725 25.5589 12.7421 25.5329 12.7189C25.3531 12.4981 25.1413 12.3038 24.8783 12.1766L19.9842 9.79845C19.9834 9.79845 19.9826 9.79845 19.9826 9.79765C19.4328 9.53209 18.8019 9.53289 18.2506 9.79845L13.3588 12.1758C13.0957 12.303 12.8831 12.4965 12.7034 12.7173C12.6751 12.7421 12.6545 12.7757 12.6292 12.8053C12.5895 12.8589 12.5489 12.9109 12.5153 12.9685C12.5115 12.9757 12.5054 12.9805 12.5023 12.9869C12.4992 12.9941 12.5 13.0013 12.4969 13.0085C12.3356 13.298 12.2354 13.6236 12.2354 13.966V19.6189C12.2293 20.3788 12.6667 21.0859 13.3504 21.4203L18.2437 23.7976C18.5205 23.9328 18.8172 24 19.1147 24C19.4114 24 19.7081 23.9328 19.9842 23.7984L24.876 21.4211C25.5581 21.0915 25.9993 20.3892 26.0001 19.6309V13.9652C25.9993 13.6228 25.8991 13.2972 25.737 13.0069Z" fill="#C2CFE0"/>
</svg>
