<svg width="10" height="11" viewBox="0 0 10 11" fill="none" xmlns="http://www.w3.org/2000/svg">
<path d="M9.87227 6.82177L8.97509 6.27621C9.06565 5.76169 9.06565 5.23387 8.97509 4.71936L9.87227 4.1738C9.97547 4.1117 10.0218 3.98307 9.9881 3.86331C9.75433 3.0738 9.35629 2.35969 8.83609 1.76534C8.75606 1.67441 8.62549 1.65223 8.52439 1.71433L7.62721 2.25989C7.25023 1.91836 6.81638 1.65445 6.34673 1.48147V0.39256C6.34673 0.268366 6.2646 0.159698 6.14876 0.133085C5.37584 -0.0487694 4.58396 -0.0398984 3.84895 0.133085C3.73312 0.159698 3.65098 0.268366 3.65098 0.39256V1.48368C3.18343 1.65889 2.74959 1.9228 2.3705 2.26211L1.47542 1.71655C1.37223 1.65445 1.24376 1.67441 1.16373 1.76755C0.643529 2.35969 0.245485 3.0738 0.0117122 3.86553C-0.0240908 3.98529 0.0243485 4.11392 0.127545 4.17601L1.02473 4.72158C0.934165 5.23609 0.934165 5.76391 1.02473 6.27842L0.127545 6.82399C0.0243485 6.88608 -0.0219847 7.01471 0.0117122 7.13447C0.245485 7.92398 0.643529 8.63809 1.16373 9.23244C1.24376 9.32337 1.37433 9.34555 1.47542 9.28345L2.3726 8.73789C2.74959 9.07942 3.18343 9.34333 3.65309 9.51632V10.6074C3.65309 10.7316 3.73522 10.8403 3.85105 10.8669C4.62398 11.0488 5.41586 11.0399 6.15087 10.8669C6.2667 10.8403 6.34884 10.7316 6.34884 10.6074V9.51632C6.81638 9.34111 7.25023 9.0772 7.62932 8.73789L8.5265 9.28345C8.6297 9.34555 8.75817 9.32559 8.8382 9.23244C9.35839 8.64031 9.75644 7.9262 9.99021 7.13447C10.0218 7.01249 9.97547 6.88387 9.87227 6.82177ZM4.99886 7.27197C4.07008 7.27197 3.31401 6.4758 3.31401 5.49778C3.31401 4.51976 4.07008 3.7236 4.99886 3.7236C5.92763 3.7236 6.6837 4.51976 6.6837 5.49778C6.6837 6.4758 5.92763 7.27197 4.99886 7.27197Z" fill="#ffffff"/>
</svg>
