<svg width="20" height="20" viewBox="0 0 20 20" fill="none" xmlns="http://www.w3.org/2000/svg">
<path fill-rule="evenodd" clip-rule="evenodd" d="M12.4998 9.1665H10.8332V7.49984C10.8332 7.039 10.4598 6.6665 9.99984 6.6665C9.53984 6.6665 9.1665 7.039 9.1665 7.49984V9.99984C9.1665 10.4607 9.53984 10.8332 9.99984 10.8332H12.4998C12.9598 10.8332 13.3332 10.4607 13.3332 9.99984C13.3332 9.539 12.9598 9.1665 12.4998 9.1665Z" fill="#323C47"/>
<path fill-rule="evenodd" clip-rule="evenodd" d="M10 15.5833C13.0836 15.5833 15.5833 13.0836 15.5833 10C15.5833 6.91641 13.0836 4.41667 10 4.41667C6.91641 4.41667 4.41667 6.91641 4.41667 10C4.41667 13.0836 6.91641 15.5833 10 15.5833ZM10 17.5C14.1421 17.5 17.5 14.1421 17.5 10C17.5 5.85786 14.1421 2.5 10 2.5C5.85786 2.5 2.5 5.85786 2.5 10C2.5 14.1421 5.85786 17.5 10 17.5Z" fill="#323C47"/>
</svg>
