<svg width="14" height="14" viewBox="0 0 14 14" fill="none" xmlns="http://www.w3.org/2000/svg">
<path fill-rule="evenodd" clip-rule="evenodd" d="M5.66665 9.66671C5.66665 10.0334 5.36665 10.3334 4.99998 10.3334C4.63331 10.3334 4.33331 10.0334 4.33331 9.66671V7.00004C4.33331 6.63337 4.63331 6.33337 4.99998 6.33337C5.36665 6.33337 5.66665 6.63337 5.66665 7.00004V9.66671ZM9.66665 9.66671C9.66665 10.0334 9.36665 10.3334 8.99998 10.3334C8.63331 10.3334 8.33331 10.0334 8.33331 9.66671V7.00004C8.33331 6.63337 8.63331 6.33337 8.99998 6.33337C9.36665 6.33337 9.66665 6.63337 9.66665 7.00004V9.66671ZM11 11.6667C11 12.034 10.7013 12.3334 10.3333 12.3334H3.66666C3.29866 12.3334 2.99999 12.034 2.99999 11.6667V4.33337H11V11.6667ZM5.66663 1.88536C5.66663 1.78203 5.8093 1.66669 5.99997 1.66669H7.99997C8.19063 1.66669 8.3333 1.78203 8.3333 1.88536V3.00003H5.66663V1.88536ZM13 3.00004H12.3333H9.66665V1.88537C9.66665 1.02937 8.91931 0.333374 7.99998 0.333374H5.99998C5.08065 0.333374 4.33331 1.02937 4.33331 1.88537V3.00004H1.66665H0.99998C0.633313 3.00004 0.333313 3.30004 0.333313 3.66671C0.333313 4.03337 0.633313 4.33337 0.99998 4.33337H1.66665V11.6667C1.66665 12.7694 2.56398 13.6667 3.66665 13.6667H10.3333C11.436 13.6667 12.3333 12.7694 12.3333 11.6667V4.33337H13C13.3666 4.33337 13.6666 4.03337 13.6666 3.66671C13.6666 3.30004 13.3666 3.00004 13 3.00004Z" fill="white"/>
</svg>
