<?xml version="1.0" encoding="utf-8"?>
<!-- Generator: Adobe Illustrator 19.0.1, SVG Export Plug-In . SVG Version: 6.00 Build 0)  -->
<svg version="1.1" id="Capa_1" xmlns="http://www.w3.org/2000/svg" xmlns:xlink="http://www.w3.org/1999/xlink" x="0px" y="0px"
	 viewBox="-27 28 20 20" style="enable-background:new -27 28 20 20;" xml:space="preserve">
<style type="text/css">
	.st0{display:none;}
	.st1{display:inline;fill:#9BACB9;}
	.st2{display:inline;fill:#0081CA;}
	.st3{display:inline;fill:#FFFFFF;}
	.st4{opacity:0.3;fill:#0081CA;enable-background:new    ;}
	.st5{fill:#0081CA;}
</style>
<g id="Capa_1_1_">
	<g class="st0">
		<path class="st1" d="M-516.9,277.8c3.8,0.1,2.9,2.7,2.9,3.4l3.6-3.4l-7.4-6.8l-4.1,3.9C-522,278.2-519.9,277.7-516.9,277.8z"/>
		<path class="st1" d="M-519.1,280.2c-3.8-0.1-2.9-2.7-2.9-3.4l-3.6,3.4l7.4,6.8l4.1-3.9C-514,279.8-516.1,280.3-519.1,280.2z"/>
	</g>
</g>
<g id="Modo_de_aislamiento" class="st0">
	<circle class="st2" cx="-518" cy="279" r="9"/>
	<path class="st3" d="M-522.8,280.7l3.1-0.2c0.1,0.5,0.2,0.8,0.4,1.1c0.3,0.4,0.8,0.6,1.4,0.6c0.5,0,0.8-0.1,1.1-0.3
		c0.2-0.2,0.4-0.4,0.4-0.7s-0.1-0.5-0.4-0.7c-0.2-0.2-0.8-0.4-1.7-0.6c-1.4-0.3-2.5-0.7-3.1-1.2c-0.6-0.5-0.9-1.2-0.9-1.9
		c0-0.5,0.2-1,0.5-1.5s0.8-0.8,1.4-1.1c0.6-0.3,1.5-0.4,2.6-0.4c1.4,0,2.4,0.2,3.1,0.7c0.7,0.5,1.1,1.2,1.3,2.3l-3.1,0.2
		c-0.1-0.5-0.3-0.8-0.5-1c-0.3-0.2-0.6-0.3-1.1-0.3c-0.4,0-0.7,0.1-0.9,0.2c-0.2,0.2-0.3,0.3-0.3,0.6c0,0.2,0.1,0.3,0.2,0.4
		c0.2,0.1,0.5,0.2,1.1,0.4c1.4,0.3,2.4,0.6,3.1,0.9c0.6,0.3,1.1,0.7,1.4,1.1c0.3,0.4,0.4,0.9,0.4,1.5c0,0.6-0.2,1.2-0.6,1.8
		c-0.4,0.5-0.9,1-1.6,1.2c-0.7,0.3-1.5,0.4-2.5,0.4c-1.8,0-3-0.3-3.7-1C-522.3,282.5-522.7,281.7-522.8,280.7L-522.8,280.7z"/>
</g>
<circle class="st4" cx="-17" cy="38" r="10"/>
<g>
	<path class="st5" d="M-13.6,39.9c0-0.7,0.9-2.9-2.6-3c-2.6-0.1-4.5,0.4-4.4-2.5L-17,31l6.5,6L-13.6,39.9L-13.6,39.9z"/>
	<path class="st5" d="M-20.4,36.1c0,0.7-0.9,2.9,2.6,3c2.6,0.1,4.5-0.4,4.4,2.5L-17,45l-6.5-6L-20.4,36.1L-20.4,36.1z"/>
</g>
</svg>
