<?xml version="1.0" encoding="utf-8"?>
<!-- Generator: Adobe Illustrator 19.0.1, SVG Export Plug-In . SVG Version: 6.00 Build 0)  -->
<svg version="1.1" id="Capa_1" xmlns="http://www.w3.org/2000/svg" xmlns:xlink="http://www.w3.org/1999/xlink" x="0px" y="0px"
	 viewBox="-27 28 20 20" style="enable-background:new -27 28 20 20;" xml:space="preserve">
<style type="text/css">
	.st0{opacity:0.3;fill:#D7407A;enable-background:new    ;}
	.st1{display:none;}
	.st2{display:inline;fill:#9BACB9;}
	.st3{fill:#D7407A;stroke:#D7407A;stroke-miterlimit:10;}
</style>
<circle class="st0" cx="-17" cy="38" r="10"/>
<g id="Capa_1_2_">
	<g id="Capa_1_1_">
		<g class="st1">
			<path class="st2" d="M-15.9,277.8c3.8,0.1,2.9,2.7,2.9,3.4l3.6-3.4l-7.4-6.8l-4.1,3.9C-21,278.2-18.9,277.7-15.9,277.8z"/>
			<path class="st2" d="M-18.1,280.2c-3.8-0.1-2.9-2.7-2.9-3.4l-3.6,3.4l7.4,6.8l4.1-3.9C-13,279.8-15.1,280.3-18.1,280.2z"/>
		</g>
	</g>
</g>
<path class="st3" d="M-10.5,38c0-3.6-2.9-6.5-6.5-6.5s-6.5,2.9-6.5,6.5s2.9,6.5,6.5,6.5S-10.5,41.6-10.5,38z M-22.1,38
	c0-2.8,2.3-5.1,5.1-5.1c1.2,0,2.3,0.4,3.2,1.1l-7.3,7.3C-21.8,40.3-22.1,39.2-22.1,38z M-20.2,42.1l7.3-7.3c0.7,0.9,1.1,1.9,1.1,3.2
	c0,2.8-2.3,5.1-5.1,5.1C-18.2,43.1-19.3,42.8-20.2,42.1z"/>
</svg>
