<?xml version="1.0" encoding="utf-8"?>
<!-- Generator: Adobe Illustrator 19.0.1, SVG Export Plug-In . SVG Version: 6.00 Build 0)  -->
<svg version="1.1" id="Capa_1" xmlns="http://www.w3.org/2000/svg" xmlns:xlink="http://www.w3.org/1999/xlink" x="0px" y="0px"
	 viewBox="-469 271 20 20" style="enable-background:new -469 271 20 20;" xml:space="preserve">
<style type="text/css">
	.st0{fill:#6C757D;}
</style>
<g id="surface1">
	<path class="st0" d="M-463.4,273.5v0.6h-2.5v13.8h13.8v-13.8h-2.5v-0.6h-1.2v0.6h-6.2v-0.6H-463.4z M-464.6,275.4h1.2v0.6h1.2v-0.6
		h6.2v0.6h1.2v-0.6h1.2v1.2h-11.2V275.4z M-464.6,277.9h11.2v8.8h-11.2V277.9z M-460.9,279.1v1.2h1.2v-1.2H-460.9z M-458.4,279.1
		v1.2h1.2v-1.2H-458.4z M-455.9,279.1v1.2h1.2v-1.2H-455.9z M-463.4,281.6v1.2h1.2v-1.2H-463.4z M-460.9,281.6v1.2h1.2v-1.2H-460.9z
		 M-458.4,281.6v1.2h1.2v-1.2H-458.4z M-455.9,281.6v1.2h1.2v-1.2H-455.9z M-463.4,284.1v1.2h1.2v-1.2H-463.4z M-460.9,284.1v1.2
		h1.2v-1.2H-460.9z M-458.4,284.1v1.2h1.2v-1.2H-458.4z"/>
</g>
</svg>
