<?xml version="1.0" encoding="utf-8"?>
<!-- Generator: Adobe Illustrator 19.0.1, SVG Export Plug-In . SVG Version: 6.00 Build 0)  -->
<svg version="1.1" id="Capa_1" xmlns="http://www.w3.org/2000/svg" xmlns:xlink="http://www.w3.org/1999/xlink" x="0px" y="0px"
	 viewBox="-499 239 24 24" style="enable-background:new -499 239 24 24;" xml:space="preserve">
<style type="text/css">
	.st0{display:none;}
	.st1{fill:#7C8C98;}
	.st2{fill:#FFFFFF;}
</style>
<path class="st1" d="M-479,241h-16c-1.1,0-2,0.9-2,2l0,18l4-4h14c1.1,0,2-0.9,2-2v-12C-477,241.9-477.9,241-479,241z"/>
<g>
	<path class="st2" d="M-490.9,245.9c1,0,1.7,0.5,2,1.4c0.1,0.2,0,0.4-0.2,0.4l-0.7,0.3c-0.2,0.1-0.3,0-0.4-0.2
		c-0.1-0.4-0.3-0.5-0.7-0.5c-0.5,0-0.7,0.3-0.7,0.8v1.5c0,0.6,0.2,0.8,0.7,0.8c0.4,0,0.6-0.2,0.7-0.5c0.1-0.2,0.2-0.3,0.4-0.2
		l0.7,0.3c0.2,0.1,0.2,0.2,0.2,0.4c-0.3,0.9-0.9,1.4-2,1.4c-1.3,0-2.1-0.9-2.1-2.2v-1.4C-493,246.7-492.2,245.9-490.9,245.9z"/>
	<path class="st2" d="M-484.5,248.2v1.2c0,1.4-0.7,2.2-2.1,2.2h-1.6c-0.2,0-0.3-0.1-0.3-0.3v-5c0-0.2,0.1-0.3,0.3-0.3h1.6
		C-485.2,246-484.5,246.9-484.5,248.2z M-486.6,247.4h-0.5v2.9h0.5c0.5,0,0.8-0.3,0.8-0.9v-1.2C-485.8,247.7-486,247.4-486.6,247.4z
		"/>
	<path class="st2" d="M-480,247.9c0,0.8-0.3,1.3-0.7,1.6c0.1,0.1,0.1,0.2,0.2,0.3l0.6,1.4c0.1,0.2,0,0.4-0.2,0.4h-0.7
		c-0.4,0-0.5-0.1-0.6-0.4l-0.4-1.1c-0.1-0.3-0.2-0.4-0.5-0.4h-0.2v1.6c0,0.2-0.1,0.3-0.3,0.3h-0.8c-0.2,0-0.3-0.1-0.3-0.3v-5
		c0-0.2,0.1-0.3,0.3-0.3h1.9C-480.6,246-480,246.7-480,247.9z M-481.8,247.4h-0.7v1.1h0.7c0.3,0,0.4-0.2,0.4-0.5
		C-481.4,247.6-481.5,247.4-481.8,247.4z"/>
</g>
</svg>
