<?xml version="1.0" encoding="utf-8"?>
<!-- Generator: Adobe Illustrator 19.0.1, SVG Export Plug-In . SVG Version: 6.00 Build 0)  -->
<svg version="1.1" id="Capa_1" xmlns="http://www.w3.org/2000/svg" xmlns:xlink="http://www.w3.org/1999/xlink" x="0px" y="0px"
	 viewBox="-172 244.2 24 24" style="enable-background:new -172 244.2 24 24;" xml:space="preserve">
<style type="text/css">
	.st0{fill:#7C8C98;stroke:#7C8C98;stroke-width:0.3;stroke-miterlimit:10;}
</style>
<g>
	<g>
		<path class="st0" d="M-160.9,256.3l-5.1,5.1c0,0,0,0.1,0,0.2l0.7,0.7c0,0,0.1,0,0.1,0c0,0,0,0,0.1,0l5.1-5.1l5.1,5.1
			c0,0,0.1,0,0.1,0c0,0,0,0,0.1,0l0.7-0.7c0,0,0-0.1,0-0.2l-5.1-5.1l5.1-5c0,0,0-0.1,0-0.2l-0.7-0.7c0,0-0.1,0-0.1,0s0,0-0.1,0
			l-5.1,5.1l-5.1-5.1c0,0-0.1,0-0.1,0s0,0-0.1,0l-0.7,0.7c0,0,0,0.1,0,0.2L-160.9,256.3z"/>
	</g>
</g>
</svg>
