<?xml version="1.0" encoding="utf-8"?>
<!-- Generator: Adobe Illustrator 19.0.1, SVG Export Plug-In . SVG Version: 6.00 Build 0)  -->
<svg version="1.1" id="Capa_1" xmlns="http://www.w3.org/2000/svg" xmlns:xlink="http://www.w3.org/1999/xlink" x="0px" y="0px"
	 viewBox="-499 239 24 24" style="enable-background:new -499 239 24 24;" xml:space="preserve">
<style type="text/css">
	.st0{fill:none;}
	.st1{fill:#7C8C98;}
</style>
<g>
	<g id="Bounding_Boxes">
		<g id="ui_x5F_spec_x5F_header_copy_3">
		</g>
		<path class="st0" d="M-499,238.9h24v24h-24V238.9z"/>
	</g>
	<g id="Rounded">
		<g id="ui_x5F_spec_x5F_header_copy_5">
		</g>
		<path class="st1" d="M-482.4,247.9h-1.6v-5c0-0.6-0.5-1-1-1h-4c-0.5,0-1,0.4-1,1v5h-1.6c-0.9,0-1.3,1.1-0.7,1.7l4.6,4.6
			c0.4,0.4,1,0.4,1.4,0l4.6-4.6C-481.1,249-481.5,247.9-482.4,247.9z M-494,257.9L-494,257.9c0,0.5,0.5,1,1,1h12c0.5,0,1-0.5,1-1
			l0,0c0-0.5-0.5-1-1-1h-12C-493.5,256.9-494,257.4-494,257.9z"/>
	</g>
</g>
</svg>
