<?xml version="1.0" encoding="utf-8"?>
<!-- Generator: Adobe Illustrator 19.0.1, SVG Export Plug-In . SVG Version: 6.00 Build 0)  -->
<svg version="1.1" id="Capa_1" xmlns="http://www.w3.org/2000/svg" xmlns:xlink="http://www.w3.org/1999/xlink" x="0px" y="0px"
	 viewBox="0 0 24 24" style="enable-background:new 0 0 24 24;" xml:space="preserve">
<style type="text/css">
	.st0{fill:#7C8C98;}
</style>
<path class="st0" d="M15.8,3.5L5.7,13.7l-2.2,6.8l6.8-2.2L20.5,8.2c0,0-0.1-1.6-1.6-3.1C17.5,3.6,15.8,3.5,15.8,3.5z M16.1,4.8
	c0.8,0.2,1.5,0.5,2,1C18.6,6.3,19,7,19.2,7.9l-1.4,1.4l-3.1-3.1l1.1-1.1L16.1,4.8z M6.5,14.4c0,0,0.9,0.2,1.9,1.2
	c1,0.9,1.2,1.8,1.2,1.8l0,0l-2.8,0.9l-1.2-1.2L6.5,14.4z"/>
</svg>
