<?xml version="1.0" encoding="utf-8"?>
<!-- Generator: Adobe Illustrator 19.0.1, SVG Export Plug-In . SVG Version: 6.00 Build 0)  -->
<svg version="1.1" id="Capa_1" xmlns="http://www.w3.org/2000/svg" xmlns:xlink="http://www.w3.org/1999/xlink" x="0px" y="0px"
	 viewBox="-499 239 24 24" style="enable-background:new -499 239 24 24;" xml:space="preserve">
<style type="text/css">
	.st0{fill:none;}
	.st1{fill:#7C8C98;}
</style>
<g>
	<g id="Bounding_Boxes">
		<g id="ui_x5F_spec_x5F_header_copy_2">
		</g>
		<path class="st0" d="M-499,239h24v24h-24V239z"/>
	</g>
	<g id="Rounded_1_">
		<g id="ui_x5F_spec_x5F_header_copy_6">
		</g>
		<path class="st1" d="M-479,243h-16c-1.1,0-2,0.9-2,2l0,12c0,1.1,0.9,2,2,2h16c1.1,0,2-0.9,2-2v-12C-477,243.9-477.9,243-479,243z
			 M-479.4,247.2l-7.1,4.4c-0.3,0.2-0.7,0.2-1.1,0l-7.1-4.4c-0.2-0.2-0.4-0.4-0.4-0.7c0-0.7,0.7-1.1,1.3-0.7l6.7,4.2l6.7-4.2
			c0.6-0.3,1.3,0.1,1.3,0.7C-479,246.8-479.1,247.1-479.4,247.2z"/>
	</g>
</g>
</svg>
