<?xml version="1.0" encoding="utf-8"?>
<!-- Generator: Adobe Illustrator 19.0.1, SVG Export Plug-In . SVG Version: 6.00 Build 0)  -->
<svg version="1.1" id="Capa_1" xmlns="http://www.w3.org/2000/svg" xmlns:xlink="http://www.w3.org/1999/xlink" x="0px" y="0px"
	 viewBox="-27 28 20 20" style="enable-background:new -27 28 20 20;" xml:space="preserve">
<style type="text/css">
	.st0{display:none;}
	.st1{display:inline;fill:#9BACB9;}
	.st2{display:inline;fill:#0081CA;}
	.st3{display:inline;fill:#FFFFFF;}
	.st4{opacity:0.3;fill:#0081CA;enable-background:new    ;}
	.st5{fill:none;stroke:#0081CA;stroke-width:2;stroke-linejoin:round;stroke-miterlimit:10;}
	.st6{fill:none;stroke:#0081CA;stroke-width:2;stroke-miterlimit:10;}
</style>
<g id="Capa_1_1_">
	<g class="st0">
		<path class="st1" d="M-793.9,618.8c3.8,0.1,2.9,2.7,2.9,3.4l3.6-3.4l-7.4-6.8l-4.1,3.9C-799,619.2-796.9,618.7-793.9,618.8z"/>
		<path class="st1" d="M-796.1,621.2c-3.8-0.1-2.9-2.7-2.9-3.4l-3.6,3.4l7.4,6.8l4.1-3.9C-791,620.8-793.1,621.3-796.1,621.2z"/>
	</g>
</g>
<g id="Modo_de_aislamiento" class="st0">
	<circle class="st2" cx="-795" cy="620" r="9"/>
	<path class="st3" d="M-799.8,621.7l3.1-0.2c0.1,0.5,0.2,0.8,0.4,1.1c0.3,0.4,0.8,0.6,1.4,0.6c0.5,0,0.8-0.1,1.1-0.3
		c0.2-0.2,0.4-0.4,0.4-0.7s-0.1-0.5-0.4-0.7c-0.2-0.2-0.8-0.4-1.7-0.6c-1.4-0.3-2.5-0.7-3.1-1.2s-0.9-1.2-0.9-1.9
		c0-0.5,0.2-1,0.5-1.5s0.8-0.8,1.4-1.1c0.6-0.3,1.5-0.4,2.6-0.4c1.4,0,2.4,0.2,3.1,0.7c0.7,0.5,1.1,1.2,1.3,2.3l-3.1,0.2
		c-0.1-0.5-0.3-0.8-0.5-1c-0.3-0.2-0.6-0.3-1.1-0.3c-0.4,0-0.7,0.1-0.9,0.2c-0.2,0.2-0.3,0.3-0.3,0.6c0,0.2,0.1,0.3,0.2,0.4
		c0.2,0.1,0.5,0.2,1.1,0.4c1.4,0.3,2.4,0.6,3.1,0.9c0.6,0.3,1.1,0.7,1.4,1.1c0.3,0.4,0.4,0.9,0.4,1.5s-0.2,1.2-0.6,1.8
		c-0.4,0.5-0.9,1-1.6,1.2c-0.7,0.3-1.5,0.4-2.5,0.4c-1.8,0-3-0.3-3.7-1C-799.3,623.5-799.7,622.7-799.8,621.7L-799.8,621.7z"/>
</g>
<g class="st0">
	<path class="st2" d="M-764.2,621.8c0-0.6,0.8-2.7-2.3-2.8c-2.4,0-4.1,0.3-4.1-2.3l3.3-3.2l6,5.6L-764.2,621.8L-764.2,621.8z"/>
	<path class="st2" d="M-770.6,618.2c0,0.6-0.8,2.7,2.3,2.8c2.4,0,4.1-0.3,4.1,2.3l-3.3,3.2l-6-5.6L-770.6,618.2L-770.6,618.2z"/>
</g>
<g id="Modo_de_aislamiento_1_">
</g>
<circle class="st4" cx="-17" cy="38" r="10"/>
<polygon class="st5" points="-11.5,41.1 -17,44 -22.5,41.1 -22.5,34.9 -17,32 -11.5,34.9 "/>
<line class="st6" x1="-17" y1="43.5" x2="-17" y2="38"/>
<polyline class="st6" points="-22,35.2 -17,38 -12,35.2 "/>
</svg>
