<?xml version="1.0" encoding="utf-8"?>
<!-- Generator: Adobe Illustrator 19.0.1, SVG Export Plug-In . SVG Version: 6.00 Build 0)  -->
<svg version="1.1" id="Capa_1" xmlns="http://www.w3.org/2000/svg" xmlns:xlink="http://www.w3.org/1999/xlink" x="0px" y="0px"
	 viewBox="-27 28 20 20" style="enable-background:new -27 28 20 20;" xml:space="preserve">
<style type="text/css">
	.st0{opacity:0.3;fill:#F4AD21;enable-background:new    ;}
	.st1{fill:#F4AD21;}
</style>
<circle class="st0" cx="-17" cy="38" r="10"/>
<path class="st1" d="M-11.3,41.1l-5-9.6c-0.4-0.8-1.1-0.8-1.5,0l-5,9.6c-0.6,1-0.2,1.9,0.9,1.9h9.8C-11.1,43-10.7,42.1-11.3,41.1z
	 M-17.9,35.4c0-0.5,0.4-1.1,0.9-1.1c0.5,0,0.9,0.5,0.9,1.1v2.2c0,0.5-0.4,1.1-0.9,1.1c-0.5,0-0.9-0.5-0.9-1.1V35.4z M-17,42
	c-0.6,0-1-0.4-1-1s0.4-1,1-1s1,0.4,1,1S-16.4,42-17,42z"/>
</svg>
