<?xml version="1.0" encoding="utf-8"?>
<!-- Generator: Adobe Illustrator 19.0.1, SVG Export Plug-In . SVG Version: 6.00 Build 0)  -->
<svg version="1.1" id="Capa_1" xmlns="http://www.w3.org/2000/svg" xmlns:xlink="http://www.w3.org/1999/xlink" x="0px" y="0px"
	 viewBox="-471 273 16 16" style="enable-background:new -471 273 16 16;" xml:space="preserve">
<style type="text/css">
	.st0{fill:#7C8C98;}
</style>
<path class="st0" d="M-464.8,275.7c2,0,3.6,1.6,3.6,3.6c0,0.7-0.2,1.4-0.7,2.1l-0.3,0.5l-0.5,0.3c-0.6,0.4-1.3,0.7-2.1,0.7
	c-2,0-3.6-1.6-3.6-3.6C-468.3,277.3-466.7,275.7-464.8,275.7 M-464.8,273.9c-2.9,0-5.3,2.4-5.3,5.3s2.4,5.3,5.3,5.3
	c1.2,0,2.2-0.4,3.1-1l4.3,4.3c0.2,0.2,0.4,0.3,0.6,0.3c0.2,0,0.5-0.1,0.6-0.3c0.3-0.3,0.3-0.9,0-1.3l-4.3-4.3c0.6-0.9,1-1.9,1-3.1
	C-459.4,276.3-461.8,273.9-464.8,273.9L-464.8,273.9L-464.8,273.9z"/>
</svg>
