<?xml version="1.0" encoding="utf-8"?>
<!-- Generator: Adobe Illustrator 19.0.1, SVG Export Plug-In . SVG Version: 6.00 Build 0)  -->
<svg version="1.1" id="Capa_1" xmlns="http://www.w3.org/2000/svg" xmlns:xlink="http://www.w3.org/1999/xlink" x="0px" y="0px"
	 viewBox="0 0 24 24" style="enable-background:new 0 0 24 24;" xml:space="preserve">
<style type="text/css">
	.st0{fill:#7C8C98;}
</style>
<g id="surface1_51_">
	<path class="st0" d="M18.7,3c-0.2,0-0.3,0.1-0.4,0.2l-1.1,1.1l2.5,2.5l1.1-1.1c0.3-0.3,0.3-0.6,0-0.9l-1.6-1.6
		C19,3.1,18.9,3,18.7,3z M16.6,4.9l-8.2,8.2v2.5h2.5l8.2-8.2L16.6,4.9z M4.8,6.6C3.8,6.6,3,7.4,3,8.4v10.8c0,1,0.8,1.8,1.8,1.8h10.8
		c1,0,1.8-0.8,1.8-1.8v-7.9l-1.8,1.8v6.1H4.8V8.4h6.1l1.8-1.8H4.8z"/>
</g>
</svg>
