<?xml version="1.0" encoding="utf-8"?>
<!-- Generator: Adobe Illustrator 19.0.1, SVG Export Plug-In . SVG Version: 6.00 Build 0)  -->
<svg version="1.1" id="Capa_1" xmlns="http://www.w3.org/2000/svg" xmlns:xlink="http://www.w3.org/1999/xlink" x="0px" y="0px"
	 viewBox="-499 239 24 24" style="enable-background:new -499 239 24 24;" xml:space="preserve">
<style type="text/css">
	.st0{fill:#00B3CA;}
</style>
<g id="surface1">
	<path class="st0" d="M-491,241l-3,1.5v5.5c-1.7,0-3,1.3-3,3v10h2v-10c0-0.6,0.4-1,1-1v4h14v-4c0.6,0,1,0.4,1,1v10h2v-10
		c0-1.7-1.3-3-3-3v-5.5l-3-1.5l-2,1l-2-1l-2,1L-491,241z M-491,243l2,1l2-1l2,1l2-1l1,0.8v8.2h-10v-8L-491,243z M-491,246v2h8v-2
		H-491z M-491,249v2h5v-2H-491z M-493,255v6h12v-6H-493z M-491,257h8v2h-8V257z"/>
</g>
</svg>
