<?xml version="1.0" encoding="utf-8"?>
<!-- Generator: Adobe Illustrator 19.0.1, SVG Export Plug-In . SVG Version: 6.00 Build 0)  -->
<svg version="1.1" id="Capa_1" xmlns="http://www.w3.org/2000/svg" xmlns:xlink="http://www.w3.org/1999/xlink" x="0px" y="0px"
	 viewBox="-499 239 24 24" style="enable-background:new -499 239 24 24;" xml:space="preserve">
<style type="text/css">
	.st0{fill:#00B3CA;}
</style>
<path class="st0" d="M-493.2,242c-0.4,0-0.7,0.2-0.9,0.5l-1.8,3c-0.1,0.2-0.1,0.3-0.1,0.5v12c0,1.1,0.9,2,2,2h14c1.1,0,2-0.9,2-2
	v-12c0-0.2,0-0.4-0.1-0.5l-1.8-3c-0.2-0.3-0.5-0.5-0.9-0.5H-493.2z M-492.7,244h11.4l1.2,2h-13.7L-492.7,244z M-494,248h14v10h-14
	V248z M-490,250v2h6v-2H-490z"/>
</svg>
