<?xml version="1.0" encoding="utf-8"?>
<!-- Generator: Adobe Illustrator 19.0.1, SVG Export Plug-In . SVG Version: 6.00 Build 0)  -->
<svg version="1.1" id="Capa_1" xmlns="http://www.w3.org/2000/svg" xmlns:xlink="http://www.w3.org/1999/xlink" x="0px" y="0px"
	 viewBox="-467 269 24 24" style="enable-background:new -467 269 24 24;" xml:space="preserve">
<style type="text/css">
	.st0{fill:none;}
	.st1{fill:#7C8C98;}
</style>
<path class="st0" d="M-467,269h24v24h-24V269z"/>
<path class="st1" d="M-461,288c0,1.1,0.9,2,2,2h8c1.1,0,2-0.9,2-2v-10c0-1.1-0.9-2-2-2h-8c-1.1,0-2,0.9-2,2V288z M-449,273h-2.5
	l-0.7-0.7c-0.2-0.2-0.4-0.3-0.7-0.3h-4.2c-0.3,0-0.5,0.1-0.7,0.3l-0.7,0.7h-2.5c-0.5,0-1,0.5-1,1s0.5,1,1,1h12c0.5,0,1-0.5,1-1
	S-448.5,273-449,273z"/>
</svg>
