<svg viewBox="0 0 457 457.03571" xmlns="http://www.w3.org/2000/svg"><path d="m331.820312 278.425781 105.054688 105.054688c14.738281 14.738281 14.738281 38.636719 0 53.378906-14.742188 14.742187-38.640625 14.742187-53.382812 0l-105.050782-105.054687c10.515625-6.660157 20.421875-14.636719 29.625-23.839844 9.117188-9.117188 17.09375-19.019532 23.753906-29.539063zm0 0" fill="#3c96d1"/><path d="m410.183594 457.035156c-12.007813 0-24.011719-4.570312-33.15625-13.710937l-105.054688-105.050781c-1.960937-1.964844-2.925781-4.710938-2.625-7.46875.308594-2.761719 1.851563-5.234376 4.199219-6.71875 9.910156-6.28125 19.351563-13.878907 28.058594-22.585938 8.640625-8.648438 16.210937-18.058594 22.492187-27.96875 1.488282-2.347656 3.960938-3.886719 6.71875-4.195312 2.761719-.292969 5.507813.660156 7.46875 2.625l105.054688 105.050781c18.277344 18.28125 18.277344 48.03125 0 66.3125-9.136719 9.140625-21.148438 13.710937-33.15625 13.710937zm-117.476563-123.886718 97.25 97.25c11.152344 11.140624 29.304688 11.152343 40.453125 0 11.148438-11.152344 11.148438-29.304688 0-40.457032l-97.25-97.246094c-5.550781 7.617188-11.789062 14.898438-18.628906 21.734376-6.878906 6.882812-14.191406 13.152343-21.824219 18.71875zm0 0" fill="#2a3d4f"/><path d="m359.261719 184.152344c0 96.703125-78.390625 175.097656-175.09375 175.097656s-175.09375-78.394531-175.09375-175.097656 78.390625-175.09375 175.09375-175.09375 175.09375 78.390625 175.09375 175.09375zm0 0" fill="#e7e4f3"/><g fill="#2a3d4f"><path d="m184.171875 368.304688c-47.183594 0-94.363281-17.957032-130.277344-53.875-71.835937-71.835938-71.835937-188.714844 0-260.550782 71.828125-71.835937 188.71875-71.84375 260.546875 0 71.835938 71.835938 71.835938 188.714844 0 260.550782-35.914062 35.917968-83.09375 53.875-130.269531 53.875zm-.003906-350.023438c-42.496094 0-84.992188 16.175781-117.34375 48.527344-64.707031 64.703125-64.707031 169.984375 0 234.691406 64.699219 64.707031 169.980469 64.695312 234.691406 0 64.703125-64.707031 64.703125-169.988281 0-234.691406-32.355469-32.351563-74.847656-48.527344-117.347656-48.527344zm0 0"/><path d="m104.183594 273.28125c-2.339844 0-4.679688-.894531-6.464844-2.679688-47.667969-47.667968-47.667969-125.226562 0-172.894531 3.574219-3.574219 9.359375-3.574219 12.929688 0 3.570312 3.570313 3.570312 9.355469 0 12.925781-40.539063 40.542969-40.539063 106.5 0 147.042969 3.570312 3.570313 3.570312 9.355469 0 12.925781-1.785157 1.785157-4.125 2.679688-6.464844 2.679688zm0 0"/></g></svg>