<?xml version="1.0" encoding="utf-8"?>
<!-- Generator: Adobe Illustrator 19.0.1, SVG Export Plug-In . SVG Version: 6.00 Build 0)  -->
<svg version="1.1" id="Capa_1" xmlns="http://www.w3.org/2000/svg" xmlns:xlink="http://www.w3.org/1999/xlink" x="0px" y="0px"
	 viewBox="-467 269 24 24" style="enable-background:new -467 269 24 24;" xml:space="preserve">
<style type="text/css">
	.st0{fill:none;}
	.st1{fill:#7C8C98;}
</style>
<path class="st0" d="M-467,269h24v24h-24V269z"/>
<path class="st1" d="M-464,286.5v3c0,0.3,0.2,0.5,0.5,0.5h3c0.1,0,0.3,0,0.4-0.1l10.9-10.9l-3.8-3.8l-10.9,10.9
	C-464,286.2-464,286.3-464,286.5z M-446.3,276c0.4-0.4,0.4-1,0-1.4l-2.3-2.3c-0.4-0.4-1-0.4-1.4,0l-1.8,1.8l3.8,3.8
	C-448.1,277.9-446.3,276-446.3,276z"/>
</svg>
