<svg id="_x33_0" enable-background="new 0 0 64 64"  viewBox="0 0 64 64"  xmlns="http://www.w3.org/2000/svg"><g><g><g><path d="m14 2h16c1.1 0 2 .9 2 2v13c0 .55-.45 1-1 1h-5c0-1.1-.9-2-2-2s-2 .9-2 2h-10v-14c0-1.1.9-2 2-2z" fill="#ff826e"/></g><g><path d="m34 44h16c1.1 0 2 .9 2 2v14h-10c0-1.1-.9-2-2-2s-2 .9-2 2h-5c-.55 0-1-.45-1-1v-13c0-1.1.9-2 2-2z" fill="#fcd770"/></g><g><path d="m54 58c-1.1 0-2 .9-2 2v-14h6c2.21 0 4 1.79 4 4h-4c-1.1 0-2 .9-2 2v2h6v5c0 .55-.45 1-1 1h-5c0-1.1-.9-2-2-2z" fill="#ffc729"/></g><g><path d="m12 4v14c0-1.1-.9-2-2-2s-2 .9-2 2h-5c-.55 0-1-.45-1-1v-5h6v-2c0-1.1-.9-2-2-2h-4c0-2.21 1.79-4 4-4z" fill="#fc6e51"/></g><g><circle cx="10" cy="18" fill="#969faa" r="2"/></g><g><circle cx="24" cy="18" fill="#969faa" r="2"/></g><g><circle cx="40" cy="60" fill="#969faa" r="2"/></g><g><circle cx="54" cy="60" fill="#969faa" r="2"/></g><g><path d="m8 10v2h-6v-4h4c1.1 0 2 .9 2 2z" fill="#69d6f4"/></g><g><path d="m62 50v4h-6v-2c0-1.1.9-2 2-2z" fill="#69d6f4"/></g><g><path d="m39 24h-14c-.55 0-1 .45-1 1v14c0 .55.45 1 1 1h14c.55 0 1-.45 1-1v-14c0-.55-.45-1-1-1z" fill="#d3a06c"/></g><g><path d="m30 24h4v4h-4z" fill="#b27946"/></g></g><g><path d="m58 45h-5.184c-.414-1.161-1.514-2-2.816-2h-16c-1.654 0-3 1.346-3 3v13c0 1.103.897 2 2 2h4.184c.414 1.161 1.514 2 2.816 2s2.402-.839 2.816-2h8.369c.414 1.161 1.514 2 2.816 2s2.402-.839 2.816-2h4.183c1.103 0 2-.897 2-2v-9c0-2.757-2.243-5-5-5zm-25 1c0-.551.448-1 1-1h16c.552 0 1 .449 1 1v13h-8.184c-.414-1.161-1.514-2-2.816-2s-2.402.839-2.816 2h-4.184zm7 15c-.552 0-1-.449-1-1s.448-1 1-1 1 .449 1 1-.448 1-1 1zm14 0c-.552 0-1-.449-1-1s.448-1 1-1 1 .449 1 1-.448 1-1 1zm2.816-2c-.414-1.161-1.514-2-2.816-2-.352 0-.686.072-1 .184v-10.184h5c1.302 0 2.402.839 2.816 2h-2.816c-1.654 0-3 1.346-3 3v3h6v4zm4.184-8v2h-4v-1c0-.551.448-1 1-1z"/><path d="m35 47h2v8h-2z"/><path d="m39 47h2v8h-2z"/><path d="m43 47h2v8h-2z"/><path d="m47 47h2v8h-2z"/><path d="m3 19h4.184c.414 1.161 1.514 2 2.816 2s2.402-.839 2.816-2h8.369c.414 1.161 1.514 2 2.816 2s2.402-.839 2.816-2h4.183c1.103 0 2-.897 2-2v-13c0-1.654-1.346-3-3-3h-16c-1.302 0-2.402.839-2.816 2h-5.184c-2.757 0-5 2.243-5 5v9c0 1.103.897 2 2 2zm7 0c-.552 0-1-.449-1-1s.448-1 1-1 1 .449 1 1-.448 1-1 1zm14 0c-.552 0-1-.449-1-1s.448-1 1-1 1 .449 1 1-.448 1-1 1zm-10-16h16c.552 0 1 .449 1 1v13h-4.184c-.414-1.161-1.514-2-2.816-2s-2.402.839-2.816 2h-8.184v-13c0-.551.448-1 1-1zm-8 2h5v10.184c-.314-.112-.648-.184-1-.184-1.302 0-2.402.839-2.816 2h-4.184v-4h6v-3c0-1.654-1.346-3-3-3h-2.816c.414-1.161 1.514-2 2.816-2zm0 4c.552 0 1 .449 1 1v1h-4v-2z"/><path d="m27 5h2v8h-2z"/><path d="m23 5h2v8h-2z"/><path d="m19 5h2v8h-2z"/><path d="m15 5h2v8h-2z"/><path d="m25 23c-1.103 0-2 .897-2 2v14c0 1.103.897 2 2 2h14c1.103 0 2-.897 2-2v-14c0-1.103-.897-2-2-2zm6 2h2v2h-2zm-6 14v-14h4v4h6v-4h4l.001 14z"/><path d="m35 35h2v2h-2z"/><path d="m31 35h2v2h-2z"/><path d="m43 31h2v2h-2z"/><path d="m47 31h2v2h-2z"/><path d="m41.707 13.293-2.293-2.293h11.586c5.514 0 10 4.486 10 10s-4.486 10-10 10v2c6.617 0 12-5.383 12-12s-5.383-12-12-12h-11.586l2.293-2.293-1.414-1.414-4.707 4.707 4.707 4.707z"/><path d="m19 31h2v2h-2z"/><path d="m15 31h2v2h-2z"/><path d="m22.293 50.707 2.293 2.293h-11.586c-5.514 0-10-4.486-10-10s4.486-10 10-10v-2c-6.617 0-12 5.383-12 12s5.383 12 12 12h11.586l-2.293 2.293 1.414 1.414 4.707-4.707-4.707-4.707z"/></g></g></svg>