<?xml version="1.0" encoding="utf-8"?>
<!-- Generator: Adobe Illustrator 19.0.1, SVG Export Plug-In . SVG Version: 6.00 Build 0)  -->
<svg version="1.1" id="Capa_1" xmlns="http://www.w3.org/2000/svg" xmlns:xlink="http://www.w3.org/1999/xlink" x="0px" y="0px"
	 viewBox="-467 269 24 24" style="enable-background:new -467 269 24 24;" xml:space="preserve">
<style type="text/css">
	.st0{fill:none;}
	.st1{fill:#7C8C98;}
</style>
<path class="st0" d="M-467,269h24v24h-24V269z"/>
<path class="st1" d="M-455,271c-5.5,0-10,4.5-10,10s4.5,10,10,10s10-4.5,10-10S-449.5,271-455,271z M-451,282h-3v3c0,0.5-0.5,1-1,1
	s-1-0.5-1-1v-3h-3c-0.5,0-1-0.5-1-1s0.5-1,1-1h3v-3c0-0.5,0.5-1,1-1s1,0.5,1,1v3h3c0.5,0,1,0.5,1,1S-450.5,282-451,282z"/>
</svg>
