<?xml version="1.0" encoding="utf-8"?>
<!-- Generator: Adobe Illustrator 19.0.1, SVG Export Plug-In . SVG Version: 6.00 Build 0)  -->
<svg version="1.1" id="Capa_1" xmlns="http://www.w3.org/2000/svg" xmlns:xlink="http://www.w3.org/1999/xlink" x="0px" y="0px"
	 viewBox="-499 239 24 24" style="enable-background:new -499 239 24 24;" xml:space="preserve">
<style type="text/css">
	.st0{fill:#7C8C98;}
</style>
<g id="Outline">
	<g id="ui_x5F_spec_x5F_header">
	</g>
	<g>
		<rect x="-492" y="255" class="st0" width="7" height="2"/>
		<rect x="-492" y="251" class="st0" width="10" height="2"/>
		<rect x="-492" y="247" class="st0" width="10" height="2"/>
		<path class="st0" d="M-480,243L-480,243h-4.2c-0.4-1.2-1.5-2-2.8-2s-2.4,0.8-2.8,2h-4.2l0,0c-0.1,0-0.3,0-0.4,0
			c-0.4,0.1-0.7,0.3-1,0.6c-0.2,0.2-0.3,0.4-0.4,0.6c-0.1,0.2-0.2,0.5-0.2,0.8v14c0,0.3,0.1,0.5,0.2,0.8s0.2,0.5,0.4,0.6
			c0.3,0.3,0.6,0.5,1,0.5c0.1,0,0.3,0,0.4,0l0,0h14l0,0c1.1,0,2-0.9,2-2v-14C-478,243.9-478.9,243-480,243z M-487,242.8
			c0.4,0,0.8,0.3,0.8,0.8s-0.3,0.8-0.8,0.8s-0.8-0.3-0.8-0.8S-487.4,242.8-487,242.8z M-480,259h-14v-14h14V259z"/>
	</g>
</g>
</svg>
