<?xml version="1.0" encoding="utf-8"?>
<!-- Generator: Adobe Illustrator 19.0.1, SVG Export Plug-In . SVG Version: 6.00 Build 0)  -->
<svg version="1.1" id="Capa_1" xmlns="http://www.w3.org/2000/svg" xmlns:xlink="http://www.w3.org/1999/xlink" x="0px" y="0px"
	 viewBox="-499 239 24 24" style="enable-background:new -499 239 24 24;" xml:space="preserve">
<style type="text/css">
	.st0{display:none;fill:#7C8C98;}
	.st1{display:none;}
	.st2{fill:#7C8C98;}
</style>
<polygon class="st0" points="-2476.9,1198.8 -2478.4,1196.6 -2479.9,1198.8 -2481.3,1196.6 -2482.8,1198.8 -2484.3,1196.6 
	-2485.8,1198.8 -2487.3,1196.6 -2488.9,1198.8 -2490.5,1196.6 -2490.5,1201.4 -2490.5,1212.6 -2490.5,1217.4 -2488.9,1215.2 
	-2487.4,1217.4 -2485.9,1215.2 -2484.3,1217.4 -2482.8,1215.2 -2481.3,1217.4 -2479.8,1215.2 -2478.3,1217.4 -2476.9,1215.2 
	-2475.5,1217.4 -2475.5,1212.6 -2475.5,1201.4 -2475.5,1196.6 "/>
<g id="Outline">
	<g id="ui_x5F_spec_x5F_header" class="st1">
	</g>
	<g>
		<path class="st2" d="M-483.3,242h-7.5l-5.3,5.3v7.5l5.3,5.3h7.5l5.3-5.3v-7.5L-483.3,242z M-480,253.9l-4.1,4.1h-5.8l-4.1-4.1
			v-5.8l4.1-4.1h5.8l4.1,4.1V253.9z"/>
		<circle class="st2" cx="-487" cy="255" r="1"/>
		<rect x="-488" y="246" class="st2" width="2" height="7"/>
	</g>
</g>
</svg>
