<?xml version="1.0" encoding="iso-8859-1"?>
<!-- Generator: Adobe Illustrator 19.0.0, SVG Export Plug-In . SVG Version: 6.00 Build 0)  -->
<svg version="1.1" id="Capa_1" xmlns="http://www.w3.org/2000/svg" xmlns:xlink="http://www.w3.org/1999/xlink" x="0px" y="0px"
	 viewBox="0 0 512.01 512.01" style="enable-background:new 0 0 512.01 512.01;" xml:space="preserve" height="22px" width="22px">
<g>
	<path style="fill:#2C3E50;" d="M400.552,375.57l106.284,106.284c4.463,4.463,6.205,10.967,4.572,17.063
		c-1.633,6.096-6.395,10.858-12.491,12.491c-6.096,1.633-12.6-0.109-17.063-4.572L375.305,400.287L400.552,375.57z"/>
	<path style="fill:#95A5A5;" d="M388.414,61.793v156.601l-7.415,9.357L241.346,404.215c-15.095,1.236-30.897,1.854-47.139,1.854
		C86.952,406.069,0,378.439,0,344.276V61.793H388.414z"/>
	<ellipse style="fill:#BDC3C7;" cx="194.207" cy="61.793" rx="194.207" ry="61.793"/>
	<g>
		<path style="fill:#ECF0F1;" d="M388.414,137.181v25.688c-35.575,26.306-116.083,40.166-192.971,40.166
			c-9.534,0-18.891-0.177-28.072-0.618c-2.344-0.086-4.556-1.104-6.147-2.827c-1.591-1.723-2.429-4.01-2.327-6.353
			c-0.005-0.57,0.084-1.137,0.265-1.677c0.868-4.156,4.682-7.026,8.916-6.709c8.916,0.353,18.097,0.53,27.365,0.53
			C307.288,185.379,378.968,158.72,388.414,137.181z"/>
		<path style="fill:#ECF0F1;" d="M132.427,199.845c-0.318,0-0.636-0.017-0.953-0.052c-12.457-1.336-24.556-3.078-35.965-5.172
			c-3.108-0.563-5.679-2.744-6.74-5.719c-1.062-2.975-0.453-6.29,1.597-8.694c2.05-2.403,5.227-3.528,8.333-2.95
			c10.979,2.017,22.638,3.69,34.655,4.983c4.662,0.5,8.12,4.558,7.874,9.241C140.981,196.165,137.116,199.837,132.427,199.845
			L132.427,199.845z"/>
		<path style="fill:#ECF0F1;" d="M70.356,179.73c-0.094,0.486-0.242,0.96-0.441,1.412c-1.417,3.22-4.603,5.298-8.121,5.297
			c-0.714-0.001-1.426-0.09-2.119-0.265C38.629,181.631,18.47,173.669,0,162.604v-23.305c6.532,8.916,25.6,20.215,63.912,29.749
			C68.626,170.239,71.501,175.004,70.356,179.73L70.356,179.73z"/>
		<path style="fill:#ECF0F1;" d="M380.469,211.156c-4.503,1.787-6.713,6.878-4.943,11.388c0.931,2.482,2.948,4.402,5.473,5.208
			l7.415-9.357v-11.211C385.935,208.822,383.267,210.156,380.469,211.156L380.469,211.156z"/>
		<path style="fill:#ECF0F1;" d="M192.884,273.655c-8.694,0-17.207-0.178-25.539-0.535c-4.85-0.236-8.598-4.345-8.389-9.196
			c0.209-4.851,4.296-8.623,9.148-8.442c8.086,0.345,16.346,0.517,24.78,0.517c4.875,0,8.828,3.952,8.828,8.828
			S197.759,273.655,192.884,273.655z"/>
		<path style="fill:#ECF0F1;" d="M132.427,270.465c-0.318,0-0.636-0.017-0.953-0.052c-12.457-1.336-24.556-3.078-35.965-5.172
			c-3.108-0.563-5.679-2.744-6.74-5.719c-1.062-2.975-0.453-6.29,1.597-8.694s5.227-3.528,8.333-2.95
			c10.979,2.017,22.638,3.69,34.655,4.983c4.662,0.5,8.12,4.558,7.874,9.241C140.981,266.785,137.116,270.458,132.427,270.465
			L132.427,270.465z"/>
		<path style="fill:#ECF0F1;" d="M70.356,250.35c-0.554,2.276-1.994,4.236-3.999,5.446c-2.005,1.21-4.411,1.569-6.682,0.998
			C38.629,252.251,18.47,244.289,0,233.225V209.92c6.532,8.916,25.6,20.215,63.912,29.749
			C68.626,240.859,71.501,245.625,70.356,250.35z"/>
		<path style="fill:#ECF0F1;" d="M190.5,344.19c-7.871,0-15.569-0.181-23.082-0.448c-3.164-0.09-6.037-1.869-7.53-4.66
			c-1.492-2.792-1.375-6.169,0.307-8.85c1.682-2.681,4.672-4.256,7.835-4.127c7.315,0.25,14.806,0.431,22.47,0.431
			c4.875,0,8.828,3.952,8.828,8.828S195.375,344.19,190.5,344.19L190.5,344.19z"/>
		<path style="fill:#ECF0F1;" d="M132.427,341.086c-0.318,0-0.636-0.017-0.953-0.052c-12.457-1.336-24.556-3.078-35.965-5.172
			c-3.108-0.563-5.679-2.744-6.74-5.719c-1.062-2.975-0.453-6.29,1.597-8.694c2.05-2.403,5.227-3.528,8.333-2.95
			c10.979,2.017,22.638,3.69,34.655,4.983c4.662,0.5,8.12,4.558,7.874,9.241C140.981,337.406,137.116,341.079,132.427,341.086
			L132.427,341.086z"/>
		<path style="fill:#ECF0F1;" d="M70.356,320.971c-0.554,2.276-1.994,4.236-3.999,5.446c-2.005,1.21-4.411,1.569-6.682,0.998
			C38.629,322.872,18.47,314.91,0,303.845v-23.305c6.532,8.916,25.6,20.215,63.912,29.749
			C68.626,311.48,71.501,316.246,70.356,320.971z"/>
		<rect x="379.586" y="291.752" style="fill:#ECF0F1;" width="17.655" height="24.099"/>
	</g>
	<circle style="fill:#35495E;" cx="305.39" cy="303.801" r="119.172"/>
	<circle style="fill:#B0D3F0;" cx="305.39" cy="303.801" r="83.862"/>
</g>
<g>
</g>
<g>
</g>
<g>
</g>
<g>
</g>
<g>
</g>
<g>
</g>
<g>
</g>
<g>
</g>
<g>
</g>
<g>
</g>
<g>
</g>
<g>
</g>
<g>
</g>
<g>
</g>
<g>
</g>
</svg>
