<svg id="color" enable-background="new 0 0 24 24" viewBox="0 0 24 24" xmlns="http://www.w3.org/2000/svg"><path d="m18.673 4.927c-1.312-2.399-3.884-3.927-6.673-3.927-3.545 0-6.619 2.465-7.396 5.829-2.584.272-4.604 2.443-4.604 5.071 0 2.812 2.312 5.1 5.152 5.1h12.717c3.381 0 6.131-2.722 6.131-6.067 0-3.066-2.307-5.625-5.327-6.006z" fill="#00bcd4"/><path d="m13.25 23h-2.5c-.689 0-1.25-.561-1.25-1.25v-4.25h-2.25c-.3 0-.571-.179-.689-.454s-.061-.595.146-.813l4.75-5c.283-.298.805-.298 1.088 0l4.75 5c.206.217.264.537.146.813-.118.275-.39.454-.689.454h-2.252v4.25c0 .689-.561 1.25-1.25 1.25z" fill="#607d8b"/><path d="m12 1c-3.545 0-6.619 2.465-7.396 5.829-2.584.272-4.604 2.443-4.604 5.071 0 2.812 2.312 5.1 5.152 5.1h1.39c-.093-.264-.031-.561.163-.767l4.75-5c.142-.149.343-.223.544-.223v-10.01z" fill="#00a4b9"/><path d="m12 11.01c-.201 0-.402.074-.544.223l-4.75 5c-.195.206-.257.503-.163.767.005.015.011.031.018.046.118.275.389.454.689.454h2.25v4.25c0 .689.561 1.25 1.25 1.25h1.25z" fill="#546d79"/></svg>