<?xml version="1.0" encoding="utf-8"?>
<!-- Generator: Adobe Illustrator 19.0.1, SVG Export Plug-In . SVG Version: 6.00 Build 0)  -->
<svg version="1.1" id="Capa_1" xmlns="http://www.w3.org/2000/svg" xmlns:xlink="http://www.w3.org/1999/xlink" x="0px" y="0px"
	 viewBox="-467 269 24 24" style="enable-background:new -467 269 24 24;" xml:space="preserve">
<style type="text/css">
	.st0{fill:#00B3CA;}
</style>
<path class="st0" d="M-459,286c-0.5,0-1-0.5-1-1v-5c0-0.5,0.5-1,1-1s1,0.5,1,1v5C-458,285.5-458.5,286-459,286z M-455,286
	c-0.5,0-1-0.5-1-1v-8c0-0.5,0.5-1,1-1s1,0.5,1,1v8C-454,285.5-454.5,286-455,286z M-451,286c-0.5,0-1-0.5-1-1v-2c0-0.5,0.5-1,1-1
	s1,0.5,1,1v2C-450,285.5-450.5,286-451,286z M-449,288h-12c-0.5,0-1-0.5-1-1v-12c0-0.5,0.5-1,1-1h12c0.5,0,1,0.5,1,1v12
	C-448,287.5-448.5,288-449,288z M-448,272h-14c-1.1,0-2,0.9-2,2v14c0,1.1,0.9,2,2,2h14c1.1,0,2-0.9,2-2v-14
	C-446,272.9-446.9,272-448,272z"/>
</svg>
