<?xml version="1.0" encoding="utf-8"?>
<!-- Generator: Adobe Illustrator 19.0.1, SVG Export Plug-In . SVG Version: 6.00 Build 0)  -->
<svg version="1.1" id="Capa_1" xmlns="http://www.w3.org/2000/svg" xmlns:xlink="http://www.w3.org/1999/xlink" x="0px" y="0px"
	 viewBox="-499 239 24 24" style="enable-background:new -499 239 24 24;" xml:space="preserve">
<style type="text/css">
	.st0{fill:#00B3CA;}
</style>
<path class="st0" d="M-480,241c0,0.6-0.4,1-1,1s-1-0.4-1-1h-2c0,0.6-0.4,1-1,1s-1-0.4-1-1h-2c0,0.6-0.4,1-1,1s-1-0.4-1-1h-2
	c0,0.6-0.4,1-1,1s-1-0.4-1-1h-2v18c0,1.1,0.9,2,2,2h14c1.1,0,2-0.9,2-2v-18H-480z M-486,257h-6v-2h6V257z M-486,253h-6v-2h6V253z
	 M-482,257h-2v-2h2V257z M-482,253h-2v-2h2V253z M-482,248h-10v-2h10V248z M-480,259h-14v-15h14V259z"/>
</svg>
