<?xml version="1.0" encoding="iso-8859-1"?>
<!-- Generator: Adobe Illustrator 19.0.0, SVG Export Plug-In . SVG Version: 6.00 Build 0)  -->
<svg version="1.1" id="Layer_1" xmlns="http://www.w3.org/2000/svg" xmlns:xlink="http://www.w3.org/1999/xlink" x="0px" y="0px"
	 viewBox="0 0 512 512" style="enable-background:new 0 0 512 512;" xml:space="preserve">
<path style="fill:#E6EEFF;" d="M467,31H45C20.186,31,0,51.186,0,76v300c0,24.814,20.186,45,45,45h422c24.814,0,45-20.186,45-45V76
	C512,51.186,491.814,31,467,31z"/>
<path style="fill:#DAE2F2;" d="M467,31H256v390h211c24.814,0,45-20.186,45-45V76C512,51.186,491.814,31,467,31z"/>
<path style="fill:#4D97FF;" d="M437,211h-91c-8.291,0-15-6.709-15-15v-90c0-8.291,6.709-15,15-15h91c8.291,0,15,6.709,15,15v90
	C452,204.291,445.291,211,437,211z"/>
<g>
	<path style="fill:#7F838C;" d="M166,121H75c-8.291,0-15-6.709-15-15s6.709-15,15-15h91c8.291,0,15,6.709,15,15S174.291,121,166,121
		z"/>
	<path style="fill:#7F838C;" d="M196,181H75c-8.291,0-15-6.709-15-15s6.709-15,15-15h121c8.291,0,15,6.709,15,15
		S204.291,181,196,181z"/>
</g>
<path style="fill:#5C5F66;" d="M316,331H196c-8.291,0-15-6.709-15-15v-30c0-41.353,33.647-75,75-75s75,33.647,75,75v30
	C331,324.291,324.291,331,316,331z M211,301h90v-15c0-24.814-20.186-45-45-45s-45,20.186-45,45V301z"/>
<path style="fill:#53565C;" d="M301,286v15h-45v30h60c8.291,0,15-6.709,15-15v-30c0-41.353-33.647-75-75-75v30
	C280.814,241,301,261.186,301,286z"/>
<path style="fill:#FCB33B;" d="M316,481H196c-24.814,0-45-20.186-45-45v-90c0-24.814,20.186-45,45-45h120c24.814,0,45,20.186,45,45
	v90C361,460.814,340.814,481,316,481z"/>
<path style="fill:#F69838;" d="M316,301h-60v180h60c24.814,0,45-20.186,45-45v-90C361,321.186,340.814,301,316,301z"/>
<path style="fill:#5C5F66;" d="M256,421c-8.291,0-15-6.709-15-15v-30c0-8.291,6.709-15,15-15c8.291,0,15,6.709,15,15v30
	C271,414.291,264.291,421,256,421z"/>
<path style="fill:#53565C;" d="M271,406v-30c0-8.291-6.709-15-15-15v60C264.291,421,271,414.291,271,406z"/>
<g>
</g>
<g>
</g>
<g>
</g>
<g>
</g>
<g>
</g>
<g>
</g>
<g>
</g>
<g>
</g>
<g>
</g>
<g>
</g>
<g>
</g>
<g>
</g>
<g>
</g>
<g>
</g>
<g>
</g>
</svg>
