<?xml version="1.0" encoding="utf-8"?>
<!-- Generator: Adobe Illustrator 19.0.1, SVG Export Plug-In . SVG Version: 6.00 Build 0)  -->
<svg version="1.1" id="Capa_1" xmlns="http://www.w3.org/2000/svg" xmlns:xlink="http://www.w3.org/1999/xlink" x="0px" y="0px"
	 viewBox="-499 239 24 24" style="enable-background:new -499 239 24 24;" xml:space="preserve">
<style type="text/css">
	.st0{display:none;fill:#7C8C98;}
	.st1{fill:#7C8C98;}
</style>
<polygon class="st0" points="-1977.9,959.8 -1979.4,957.6 -1980.9,959.8 -1982.3,957.6 -1983.8,959.8 -1985.3,957.6 -1986.8,959.8 
	-1988.3,957.6 -1989.9,959.8 -1991.5,957.6 -1991.5,962.4 -1991.5,973.6 -1991.5,978.4 -1989.9,976.2 -1988.4,978.4 -1986.9,976.2 
	-1985.3,978.4 -1983.8,976.2 -1982.3,978.4 -1980.8,976.2 -1979.3,978.4 -1977.9,976.2 -1976.5,978.4 -1976.5,973.6 -1976.5,962.4 
	-1976.5,957.6 "/>
<path class="st1" d="M-480,241c0,0.6-0.4,1-1,1s-1-0.4-1-1h-2c0,0.6-0.4,1-1,1s-1-0.4-1-1h-2c0,0.6-0.4,1-1,1s-1-0.4-1-1h-2
	c0,0.6-0.4,1-1,1s-1-0.4-1-1h-2v18c0,1.1,0.9,2,2,2h14c1.1,0,2-0.9,2-2v-18H-480z M-486,257h-6v-2h6V257z M-486,253h-6v-2h6V253z
	 M-482,257h-2v-2h2V257z M-482,253h-2v-2h2V253z M-482,248h-10v-2h10V248z M-480,259h-14v-15h14V259z"/>
</svg>
