<?xml version="1.0" encoding="utf-8"?>
<!-- Generator: Adobe Illustrator 19.0.1, SVG Export Plug-In . SVG Version: 6.00 Build 0)  -->
<svg version="1.1" id="Capa_1" xmlns="http://www.w3.org/2000/svg" xmlns:xlink="http://www.w3.org/1999/xlink" x="0px" y="0px"
	 viewBox="0 0 24 24" style="enable-background:new 0 0 24 24;" xml:space="preserve">
<style type="text/css">
	.st0{fill:#7C8C98;}
</style>
<path class="st0" d="M5,3C4.2,3,3.5,3.7,3.5,4.5v15C3.5,20.3,4.2,21,5,21h10.3c0.8,0,1.5-0.7,1.5-1.5v-6.8h-6.3l1.7,1.7
	c0.3,0.3,0.3,0.8,0,1.1c-0.1,0.1-0.3,0.2-0.5,0.2s-0.4-0.1-0.5-0.2l-3-3c-0.3-0.3-0.3-0.8,0-1.1l3-3c0.3-0.3,0.8-0.3,1,0
	c0.3,0.3,0.3,0.8,0,1.1l-1.7,1.7h6.3V7.9c0-0.2-0.1-0.4-0.2-0.5l-4.1-4.1C12.4,3.1,12.2,3,12,3H5z M16.8,11.2v1.5h3
	c0.4,0,0.7-0.3,0.7-0.8s-0.3-0.8-0.7-0.8H16.8z"/>
</svg>
