<svg xmlns="http://www.w3.org/2000/svg" viewBox="-446.2 232.9 114.3 36.2"><style><![CDATA[.A{fill:#0068B3}.B{fill:#DADADA}]]></style><path class="A" d="M-390.8 242.9h-10.8v6.2l7.2-.1v.9s0 .6-.3 1c-.5.6-1.6.6-1.6.6l-5.3.1v6.9s.1 1.1-.4 1.6c-.4.5-1.4.4-1.4.4h-.8v-20h13.5l-.1 2.4zm11.1 17.7l-.9.2s-1.3.3-1.7-.5c-.2-.3-.3-.7-.4-1.5-1.6 1.4-3.4 2.1-5.3 2.1-1.5 0-2.7-.4-3.6-1.2s-1.3-1.8-1.3-3 .4-2.2 1.3-3c.8-.8 2.3-1.3 4.4-1.5l2.3-.3c.9-.1 1.6-.3 2.1-.5 0-.7 0-1.3-.1-1.6 0-.3-.2-.6-.4-.9s-.6-.6-1.1-.8-1.1-.3-2-.3c-1.1 0-1.9.2-2.5.6s-1 1.1-1.3 2.2l-2.4-.3c.3-1.5.9-2.6 2-3.3s2.6-1.1 4.5-1.1c1.7 0 3 .3 3.8.8s1.3 1.1 1.5 1.9c.2.7.3 1.7.3 2.8v3.3l.1 4c.1.6.7 1.9.7 1.9zm-3.2-6.3v-.9c-1.3.4-2.9.8-4.7 1-1.9.3-2.8 1-2.8 2.4 0 .7.2 1.2.7 1.6s1.2.6 2.2.6c1.2 0 2.3-.4 3.2-1.1s1.4-1.9 1.4-3.6zm16 1.6c.3.5.3 1.2.1 1.7-.4.9-.9 1.6-1.6 2.1-1.1.9-2.4 1.3-3.9 1.3-2.1 0-3.7-.7-4.9-2.1-1.1-1.4-1.7-3.2-1.7-5.5 0-1.9.3-3.4 1-4.5s1.5-1.9 2.5-2.4 2-.7 3.1-.7c1.5 0 2.8.4 3.8 1.2 1.1.8 1.7 1.9 2 3.4l-2.4.4c-.2-1-.6-1.7-1.2-2.2-.5-.5-1.2-.7-2.1-.7-1.4 0-2.4.5-3.1 1.5s-1.1 2.3-1.1 4.1.3 3.2 1 4.1c.7 1 1.7 1.5 3 1.5 1.1 0 1.9-.3 2.5-.9s1.1-1.5 1.1-2.7l.6.1c.1-.2 1-.1 1.3.3zm7.9 4.3c-.1.1-.3.4-.8.5-.2.1-.5.1-.6.1-1.1 0-1.9-.2-2.3-.6-.5-.4-.8-.9-.9-1.4a14.36 14.36 0 0 1-.2-2.4v-8.3h-1.8v-1.9h1.8v-3.6l2.5-1.5v5.1h2.5v1.9h-2.5v8.5c0 .7.1 1.2.2 1.6.1.3.5.5 1.1.5.4 0 .7 0 1.1-.1l.1.7c0-.1.1.5-.2.9zm13.8.5h-.8s-.9 0-1.2-.5c-.2-.3-.2-.9-.2-.9v-.8h-.1c-1.1 1.6-2.6 2.5-4.5 2.5-1 0-1.9-.2-2.8-.7s-1.4-1.1-1.7-1.9-.4-1.9-.4-3.2v-9h2.5v8c0 1.3.1 2.2.2 2.8s.4 1 1 1.4c.5.4 1.1.5 1.9.5.9 0 1.9-.4 2.7-1s1.2-1.9 1.2-3.9v-7.7h2.5l-.3 14.4zm10.4-10.4c-.1-.8-.4-1.4-1-1.8-.5-.4-1.3-.6-2.2-.6s-1.7.2-2.3.5-.9.8-.9 1.4.2 1 .7 1.2 1.4.5 2.7.9l3.4 1c.8.3 1.4.7 1.8 1.3.4.5.6 1.3.6 2.3 0 1.3-.5 2.4-1.6 3.3s-2.5 1.3-4.2 1.3c-1.8 0-3.3-.4-4.3-1.2-.5-.4-1-.9-1.3-1.5-.2-.4-.3-1 .1-1.7.3-.5 1-.6 1-.6l.7-.1c.1 1 .5 1.8 1.1 2.3s1.5.8 2.6.8 1.9-.2 2.5-.7.9-1 .9-1.6c0-.4-.1-.8-.4-1.1s-.6-.5-1-.6l-2.7-.7c-2.1-.5-3.4-1.1-4.1-1.8s-1-1.5-1-2.5c0-1.2.5-2.2 1.4-3 1-.8 2.3-1.2 3.9-1.2 1.7 0 3.1.3 4 1 1 .7 1.5 1.7 1.7 3l-2.1.4z"/><path class="B" d="M-430.7 255.4l2.6-1.5 20.5 10.3-5.7 4.9-15.2-8.6z"/><path class="B" d="M-437 265.3l12.8-7.8-7.9-2.9-4.9 3-2.3-1.2-6.9 4z"/><linearGradient id="A" gradientUnits="userSpaceOnUse" x1="-421.875" y1="253.359" x2="-414.324" y2="234.112"><stop offset="0" stop-color="#0C487B"/><stop offset=".031" stop-color="#094F88"/><stop offset=".104" stop-color="#045D9F"/><stop offset=".172" stop-color="#0165AE"/><stop offset=".229" stop-color="#0068B3"/><stop offset=".571" stop-color="#008BBE"/><stop offset="1" stop-color="#00B3CA"/></linearGradient><path d="M-417.9 255.4l1.8-.9s1.5-.7 2.1-1.7c.4-.8.7-3.4.7-3.4v-16.5l-10.5 6.1-.1 13.1 6 3.3z" fill="url(#A)"/><linearGradient id="B" gradientUnits="userSpaceOnUse" x1="-428.123" y1="252.479" x2="-413.907" y2="268.153"><stop offset="0" stop-color="#0C487B"/><stop offset=".031" stop-color="#094F88"/><stop offset=".104" stop-color="#045D9F"/><stop offset=".172" stop-color="#0165AE"/><stop offset=".229" stop-color="#0068B3"/><stop offset=".571" stop-color="#008BBE"/><stop offset="1" stop-color="#00B3CA"/></linearGradient><path d="M-418 255.6l-6-3.2-2.3-1.1-5.9 3.5v2.3s.3 1.4.6 1.9c.4.9 2.5 1.7 2.5 1.7l15.9 8.4v-11l-4.8-2.5z" fill="url(#B)"/><linearGradient id="C" gradientUnits="userSpaceOnUse" x1="-423.668" y1="247.695" x2="-443.751" y2="252.816"><stop offset="0" stop-color="#0C487B"/><stop offset=".031" stop-color="#094F88"/><stop offset=".104" stop-color="#045D9F"/><stop offset=".172" stop-color="#0165AE"/><stop offset=".229" stop-color="#0068B3"/><stop offset=".571" stop-color="#008BBE"/><stop offset="1" stop-color="#00B3CA"/></linearGradient><path d="M-426.7 242.7s-.6-.3-1.6-.3c-.5 0-1.7.6-1.7.6l-16.2 9.7 9.1 4.9 5.2-3.2 5.1-3.1.4-.2 1.8-1.1v-6l-2.1-1.3z" fill="url(#C)"/></svg>