<?xml version="1.0" encoding="utf-8"?>
<!-- Generator: Adobe Illustrator 19.0.1, SVG Export Plug-In . SVG Version: 6.00 Build 0)  -->
<svg version="1.1" id="Capa_1" xmlns="http://www.w3.org/2000/svg" xmlns:xlink="http://www.w3.org/1999/xlink" x="0px" y="0px"
	 viewBox="-27 28 20 20" style="enable-background:new -27 28 20 20;" xml:space="preserve">
<style type="text/css">
	.st0{display:none;}
	.st1{display:inline;fill:#9BACB9;}
	.st2{display:inline;fill:#0081CA;}
	.st3{display:inline;fill:#FFFFFF;}
	.st4{fill:#D6E0E5;}
	.st5{fill:none;stroke:#9BACB9;stroke-width:2;stroke-linejoin:round;stroke-miterlimit:10;}
	.st6{fill:none;stroke:#9BACB9;stroke-width:2;stroke-miterlimit:10;}
	.st7{display:none;fill:#D7407A;stroke:#D7407A;stroke-miterlimit:10;}
</style>
<g id="Capa_1_1_">
	<g class="st0">
		<path class="st1" d="M-404.9,327.8c3.8,0.1,2.9,2.7,2.9,3.4l3.6-3.4l-7.4-6.8l-4.1,3.9C-410,328.2-407.9,327.7-404.9,327.8z"/>
		<path class="st1" d="M-407.1,330.2c-3.8-0.1-2.9-2.7-2.9-3.4l-3.6,3.4l7.4,6.8l4.1-3.9C-402,329.8-404.1,330.3-407.1,330.2z"/>
	</g>
</g>
<g id="Modo_de_aislamiento" class="st0">
	<circle class="st2" cx="-406" cy="329" r="9"/>
	<path class="st3" d="M-410.8,330.7l3.1-0.2c0.1,0.5,0.2,0.8,0.4,1.1c0.3,0.4,0.8,0.6,1.4,0.6c0.5,0,0.8-0.1,1.1-0.3
		c0.2-0.2,0.4-0.4,0.4-0.7c0-0.3-0.1-0.5-0.4-0.7c-0.2-0.2-0.8-0.4-1.7-0.6c-1.4-0.3-2.5-0.7-3.1-1.2s-0.9-1.2-0.9-1.9
		c0-0.5,0.2-1,0.5-1.5s0.8-0.8,1.4-1.1c0.6-0.3,1.5-0.4,2.6-0.4c1.4,0,2.4,0.2,3.1,0.7s1.1,1.2,1.3,2.3l-3.1,0.2
		c-0.1-0.5-0.3-0.8-0.5-1c-0.3-0.2-0.6-0.3-1.1-0.3c-0.4,0-0.7,0.1-0.9,0.2c-0.2,0.2-0.3,0.3-0.3,0.6c0,0.2,0.1,0.3,0.2,0.4
		c0.2,0.1,0.5,0.2,1.1,0.4c1.4,0.3,2.4,0.6,3.1,0.9c0.6,0.3,1.1,0.7,1.4,1.1s0.4,0.9,0.4,1.5s-0.2,1.2-0.6,1.8
		c-0.4,0.5-0.9,1-1.6,1.2c-0.7,0.3-1.5,0.4-2.5,0.4c-1.8,0-3-0.3-3.7-1C-410.3,332.5-410.7,331.7-410.8,330.7L-410.8,330.7z"/>
</g>
<g class="st0">
	<path class="st2" d="M-375.2,330.8c0-0.6,0.8-2.7-2.3-2.8c-2.4,0-4.1,0.3-4.1-2.3l3.3-3.2l6,5.6L-375.2,330.8L-375.2,330.8z"/>
	<path class="st2" d="M-381.6,327.2c0,0.6-0.8,2.7,2.3,2.8c2.4,0,4.1-0.3,4.1,2.3l-3.3,3.2l-6-5.6L-381.6,327.2L-381.6,327.2z"/>
</g>
<circle class="st4" cx="-17" cy="38" r="10"/>
<polygon class="st5" points="-11.5,41.1 -17,44 -22.5,41.1 -22.5,34.9 -17,32 -11.5,34.9 "/>
<line class="st6" x1="-17" y1="43.5" x2="-17" y2="38"/>
<polyline class="st6" points="-22,35.2 -17,38 -12,35.2 "/>
<path class="st7" d="M10.1,36.6c0-3.6-2.9-6.5-6.5-6.5s-6.5,2.9-6.5,6.5s2.9,6.5,6.5,6.5S10.1,40.2,10.1,36.6z M-1.6,36.6
	c0-2.8,2.3-5.1,5.1-5.1c1.2,0,2.3,0.4,3.2,1.1l-7.3,7.3C-1.2,38.9-1.6,37.8-1.6,36.6z M0.4,40.7l7.3-7.3c0.7,0.9,1.1,1.9,1.1,3.2
	c0,2.8-2.3,5.1-5.1,5.1C2.4,41.7,1.2,41.4,0.4,40.7z"/>
</svg>
