<?xml version="1.0" encoding="utf-8"?>
<!-- Generator: Adobe Illustrator 19.0.1, SVG Export Plug-In . SVG Version: 6.00 Build 0)  -->
<svg version="1.1" id="Capa_1" xmlns="http://www.w3.org/2000/svg" xmlns:xlink="http://www.w3.org/1999/xlink" x="0px" y="0px"
	 viewBox="-27 28 20 20" style="enable-background:new -27 28 20 20;" xml:space="preserve">
<style type="text/css">
	.st0{fill:#D6E0E5;}
	.st1{display:none;}
	.st2{display:inline;fill:#9BACB9;}
	.st3{display:inline;fill:#0081CA;}
	.st4{display:inline;fill:#FFFFFF;}
	.st5{fill:none;}
	.st6{fill:#9BACB9;stroke:#9BACB9;stroke-miterlimit:10;}
	.st7{fill:#9BACB9;stroke:#9BACB9;stroke-width:0.5;stroke-miterlimit:10;}
</style>
<g id="Capa_1_2_">
	<circle class="st0" cx="-17" cy="38" r="10"/>
	<g id="Capa_1_1_">
		<g class="st1">
			<path class="st2" d="M-15.9,277.8c3.8,0.1,2.9,2.7,2.9,3.4l3.6-3.4l-7.4-6.8l-4.1,3.9C-21,278.2-18.9,277.7-15.9,277.8z"/>
			<path class="st2" d="M-18.1,280.2c-3.8-0.1-2.9-2.7-2.9-3.4l-3.6,3.4l7.4,6.8l4.1-3.9C-13,279.8-15.1,280.3-18.1,280.2z"/>
		</g>
	</g>
	<g id="Modo_de_aislamiento" class="st1">
		<circle class="st3" cx="-17" cy="279" r="9"/>
		<path class="st4" d="M-21.8,280.7l3.1-0.2c0.1,0.5,0.2,0.8,0.4,1.1c0.3,0.4,0.8,0.6,1.4,0.6c0.5,0,0.8-0.1,1.1-0.3
			c0.2-0.2,0.4-0.4,0.4-0.7s-0.1-0.5-0.4-0.7c-0.2-0.2-0.8-0.4-1.7-0.6c-1.4-0.3-2.5-0.7-3.1-1.2s-0.9-1.2-0.9-1.9
			c0-0.5,0.2-1,0.5-1.5s0.8-0.8,1.4-1.1s1.5-0.4,2.6-0.4c1.4,0,2.4,0.2,3.1,0.7s1.1,1.2,1.3,2.3l-3.1,0.2c-0.1-0.5-0.3-0.8-0.5-1
			c-0.3-0.2-0.6-0.3-1.1-0.3c-0.4,0-0.7,0.1-0.9,0.2c-0.2,0.2-0.3,0.3-0.3,0.6c0,0.2,0.1,0.3,0.2,0.4c0.2,0.1,0.5,0.2,1.1,0.4
			c1.4,0.3,2.4,0.6,3.1,0.9c0.6,0.3,1.1,0.7,1.4,1.1c0.3,0.4,0.4,0.9,0.4,1.5c0,0.6-0.2,1.2-0.6,1.8c-0.4,0.5-0.9,1-1.6,1.2
			c-0.7,0.3-1.5,0.4-2.5,0.4c-1.8,0-3-0.3-3.7-1C-21.3,282.5-21.7,281.7-21.8,280.7L-21.8,280.7z"/>
	</g>
</g>
<path class="st5" d="M-26,29h18v18h-18V29z"/>
<path class="st6" d="M-17,31.5c-3.6,0-6.5,2.9-6.5,6.5s2.9,6.5,6.5,6.5s6.5-2.9,6.5-6.5S-13.4,31.5-17,31.5z M-17,43.2
	c-2.9,0-5.2-2.3-5.2-5.2s2.3-5.2,5.2-5.2s5.2,2.3,5.2,5.2S-14.1,43.2-17,43.2z"/>
<path class="st7" d="M-16.7,34.7h-1v3.9l3.5,2.1l0.5-0.8l-3-1.8V34.7z"/>
</svg>
