<?xml version="1.0" encoding="utf-8"?>
<!-- Generator: Adobe Illustrator 19.0.1, SVG Export Plug-In . SVG Version: 6.00 Build 0)  -->
<svg version="1.1" id="Capa_1" xmlns="http://www.w3.org/2000/svg" xmlns:xlink="http://www.w3.org/1999/xlink" x="0px" y="0px"
	 viewBox="-499 239 24 24" style="enable-background:new -499 239 24 24;" xml:space="preserve">
<style type="text/css">
	.st0{fill:none;}
	.st1{fill:#7C8C98;}
</style>
<g id="Bounding_Boxes_1_">
	<g id="ui_x5F_spec_x5F_header_copy_3_1_">
	</g>
	<path class="st0" d="M-499,239h24v24h-24V239z"/>
</g>
<g id="Rounded_1_">
	<g id="ui_x5F_spec_x5F_header_copy_5_1_">
	</g>
	<path class="st1" d="M-487,243c-5,0-9.3,3.1-11,7.5c1.7,4.4,6,7.5,11,7.5s9.3-3.1,11-7.5C-477.7,246.1-482,243-487,243z
		 M-487,255.5c-2.8,0-5-2.2-5-5s2.2-5,5-5s5,2.2,5,5S-484.2,255.5-487,255.5z M-487,247.5c-1.7,0-3,1.3-3,3s1.3,3,3,3s3-1.3,3-3
		S-485.3,247.5-487,247.5z"/>
</g>
</svg>
