<?xml version="1.0" encoding="utf-8"?>
<!-- Generator: Adobe Illustrator 19.0.1, SVG Export Plug-In . SVG Version: 6.00 Build 0)  -->
<svg version="1.1" id="Capa_1" xmlns="http://www.w3.org/2000/svg" xmlns:xlink="http://www.w3.org/1999/xlink" x="0px" y="0px"
	 viewBox="-499 239 24 24" style="enable-background:new -499 239 24 24;" xml:space="preserve">
<style type="text/css">
	.st0{fill:#7C8C98;}
</style>
<g id="Rounded">
	<g id="ui_x5F_spec_x5F_header_copy_5">
	</g>
	<g>
		<path class="st0" d="M-478,248.5v-5.3c0-0.5-0.5-0.7-0.9-0.4l-1.8,1.8c-1.8-1.8-4.4-2.9-7.2-2.6c-4.2,0.4-7.6,3.8-8.1,7.9
			c-0.6,5.4,3.6,10,8.9,10c4.6,0,8.4-3.4,8.9-7.9c0.1-0.6-0.4-1.1-1-1.1l0,0c-0.5,0-0.9,0.4-1,0.9c-0.4,3.5-3.4,6.2-7.1,6.1
			c-3.7,0-6.8-3.2-6.9-6.9c-0.1-3.9,3.1-7.1,7-7.1c1.9,0,3.7,0.8,5,2.1l-2.1,2.1c-0.3,0.3-0.1,0.9,0.3,0.9h5.3
			C-478.2,249-478,248.8-478,248.5z"/>
	</g>
</g>
</svg>
