<?xml version="1.0" encoding="utf-8"?>
<!-- Generator: Adobe Illustrator 19.0.1, SVG Export Plug-In . SVG Version: 6.00 Build 0)  -->
<svg version="1.1" id="Capa_1" xmlns="http://www.w3.org/2000/svg" xmlns:xlink="http://www.w3.org/1999/xlink" x="0px" y="0px"
	 viewBox="0 0 106 100" style="enable-background:new 0 0 106 100;" xml:space="preserve">
<style type="text/css">
	.st0{fill:#7C8C98;}
	.st1{fill:url(#SVGID_1_);}
	.st2{fill:#4F6173;}
</style>
<circle class="st0" cx="37.4" cy="68.8" r="2.4"/>
<circle class="st0" cx="33.1" cy="73.1" r="2.4"/>
<circle class="st0" cx="41.7" cy="64.5" r="2.4"/>
<circle class="st0" cx="46" cy="60.1" r="2.4"/>
<circle class="st0" cx="50.4" cy="55.8" r="2.4"/>
<linearGradient id="SVGID_1_" gradientUnits="userSpaceOnUse" x1="71.7644" y1="72.8608" x2="77.7644" y2="46.3608">
	<stop  offset="0" style="stop-color:#0F497B"/>
	<stop  offset="3.120000e-02" style="stop-color:#0C5089"/>
	<stop  offset="0.1044" style="stop-color:#0B5EA0"/>
	<stop  offset="0.1723" style="stop-color:#0B66AE"/>
	<stop  offset="0.2293" style="stop-color:#0C69B2"/>
	<stop  offset="0.5706" style="stop-color:#008CBF"/>
	<stop  offset="1" style="stop-color:#0BB4CA"/>
</linearGradient>
<path class="st1" d="M80.3,56.6l-7.5-3.9c-0.4-0.2-0.8-0.3-1.2-0.3c-1.1,0-2.1,0.8-2.4,1.9c-0.3,1.1,0.3,2.2,1.3,2.7L78,61
	c0.4,0.2,0.8,0.3,1.2,0.3c0.5,0,0.9-0.1,1.3-0.4c0.7-0.5,1.2-1.3,1.1-2.2C81.6,57.8,81,57,80.3,56.6z"/>
<g>
	<path class="st0" d="M60.1,44.1c-1.3,0-2.4,1.1-2.4,2.4c0,1.3,1.1,2.4,2.4,2.4c1.3,0,2.4-1.1,2.4-2.4
		C62.5,45.2,61.4,44.1,60.1,44.1z"/>
	<path class="st0" d="M63.7,40c-1.3,0-2.4,1.1-2.4,2.4c0,1.3,1.1,2.4,2.4,2.4c1.3,0,2.4-1.1,2.4-2.4C66.1,41.1,65,40,63.7,40z"/>
	<path class="st0" d="M60,35.5c-1.3,0-2.4,1.1-2.4,2.4c0,1.3,1.1,2.4,2.4,2.4c1.3,0,2.4-1.1,2.4-2.4C62.4,36.6,61.3,35.5,60,35.5z"
		/>
	<path class="st0" d="M56.4,30.7c-1.3,0-2.4,1.1-2.4,2.4c0,1.3,1.1,2.4,2.4,2.4c1.3,0,2.4-1.1,2.4-2.4
		C58.9,31.8,57.8,30.7,56.4,30.7z"/>
	<path class="st0" d="M53,25.9c-1.3,0-2.4,1.1-2.4,2.4c0,1.3,1.1,2.4,2.4,2.4c1.3,0,2.4-1.1,2.4-2.4C55.4,27,54.3,25.9,53,25.9z"/>
	<path class="st0" d="M49.4,21.2c-1.3,0-2.4,1.1-2.4,2.4c0,1.3,1.1,2.4,2.4,2.4c1.3,0,2.4-1.1,2.4-2.4
		C51.8,22.3,50.7,21.2,49.4,21.2z"/>
	<path class="st0" d="M45.9,16.4c-1.3,0-2.4,1.1-2.4,2.4c0,1.3,1.1,2.4,2.4,2.4c1.3,0,2.4-1.1,2.4-2.4
		C48.3,17.5,47.2,16.4,45.9,16.4z"/>
	<path class="st0" d="M42.3,11.5c-1.3,0-2.4,1.1-2.4,2.4c0,1.3,1.1,2.4,2.4,2.4c1.3,0,2.4-1.1,2.4-2.4
		C44.7,12.6,43.6,11.5,42.3,11.5z"/>
	<path class="st0" d="M69,42.6c-1.3,0-2.4,1.1-2.4,2.4c0,1.3,1.1,2.4,2.4,2.4c1.3,0,2.4-1.1,2.4-2.4C71.5,43.7,70.4,42.6,69,42.6z"
		/>
	<path class="st0" d="M74.4,45.2c-1.3,0-2.4,1.1-2.4,2.4c0,1.3,1.1,2.4,2.4,2.4c1.3,0,2.4-1.1,2.4-2.4
		C76.8,46.3,75.7,45.2,74.4,45.2z"/>
	<path class="st0" d="M79.7,47.8c-1.3,0-2.4,1.1-2.4,2.4c0,1.3,1.1,2.4,2.4,2.4c1.3,0,2.4-1.1,2.4-2.4C82.1,48.9,81,47.8,79.7,47.8z
		"/>
	<path class="st0" d="M85,50.4c-1.3,0-2.4,1.1-2.4,2.4c0,1.3,1.1,2.4,2.4,2.4c1.3,0,2.4-1.1,2.4-2.4C87.5,51.5,86.4,50.4,85,50.4z"
		/>
	<path class="st0" d="M90.1,52.8c-1.3,0-2.4,1.1-2.4,2.4c0,1.3,1.1,2.4,2.4,2.4c1.3,0,2.4-1.1,2.4-2.4
		C92.5,53.9,91.4,52.8,90.1,52.8z"/>
</g>
<path class="st2" d="M83.6,75.4L100,57.6L76.8,23.7l-0.1-0.2L39.7,4.8l-13,13.7L14.1,5.9c-1-1-2.5-1-3.5,0l0,0c-1,1-1,2.5,0,3.5
	l84.8,84.8c1,1,2.5,1,3.5,0l0,0c1-1,1-2.5,0-3.5L83.6,75.4z M80.1,71.9l-50-50l10.6-11.2l32.5,16.5l20.3,29.6L80.1,71.9z"/>
<path class="st2" d="M65.7,87.6L35,74.6l-2.5-1.2l-1.4-1.7L11.8,41.3L23,29.6c0.9-1,0.9-2.5,0-3.4l0,0c-1-1-2.6-1-3.5,0L5.6,40.7
	L29,77.3l37.9,15.9l9.8-10.6c0.9-1,0.9-2.5-0.1-3.4v0c-1-1-2.6-0.9-3.5,0.1L65.7,87.6z"/>
</svg>
