<?xml version="1.0" encoding="utf-8"?>
<!-- Generator: Adobe Illustrator 19.0.1, SVG Export Plug-In . SVG Version: 6.00 Build 0)  -->
<svg version="1.1" id="Capa_1" xmlns="http://www.w3.org/2000/svg" xmlns:xlink="http://www.w3.org/1999/xlink" x="0px" y="0px"
	 viewBox="-140 198.2 88 115" style="enable-background:new -140 198.2 88 115;" xml:space="preserve">
<style type="text/css">
	.st0{display:none;}
	.st1{display:inline;fill:#FFFFFF;}
	.st2{display:inline;}
	.st3{fill:#DADADA;}
	.st4{fill:#F5F6F7;}
	.st5{fill:#CED4D8;}
	.st6{fill:#CED4D8;stroke:#F5F6F7;stroke-width:0.5;stroke-miterlimit:10;}
</style>
<g class="st0">
	<path class="st1" d="M-205.2,198.3H-273c-2.7,0-5,2.2-5,5v105c0,2.7,2.2,5,5,5h78c2.7,0,5-2.2,5-5v-94.2L-205.2,198.3z"/>
	<g class="st2">
		<path class="st3" d="M-264.2,211.6h-3.1v3.3h-1.4v-7.8h5v1.1h-3.6v2.3h3.1V211.6z"/>
		<path class="st3" d="M-259.3,213.1h-3l-0.7,1.8h-1.4l3-7.8h1.2l3,7.8h-1.4L-259.3,213.1z M-262,212h2.3l-1.1-3.2L-262,212z"/>
		<path class="st3" d="M-250.5,212.4c0,0.4-0.1,0.7-0.3,1.1s-0.3,0.6-0.6,0.8c-0.3,0.2-0.6,0.4-0.9,0.6c-0.3,0.2-0.8,0.2-1.3,0.2
			s-0.9-0.1-1.3-0.3c-0.4-0.2-0.7-0.4-1-0.7c-0.3-0.3-0.5-0.7-0.6-1.2s-0.2-1-0.2-1.5v-0.6c0-0.6,0.1-1.1,0.2-1.5
			c0.1-0.4,0.4-0.8,0.6-1.2c0.2-0.4,0.6-0.6,1-0.7c0.4-0.2,0.8-0.3,1.3-0.3s0.9,0.1,1.2,0.2c0.4,0.1,0.7,0.3,0.9,0.6
			c0.2,0.2,0.4,0.5,0.6,0.9c0.2,0.4,0.2,0.7,0.3,1.1h-1.4c0-0.2-0.1-0.5-0.1-0.7s-0.2-0.4-0.3-0.5c-0.1-0.1-0.3-0.2-0.5-0.3
			c-0.2-0.1-0.4-0.1-0.7-0.1c-0.3,0-0.6,0.1-0.8,0.2c-0.2,0.1-0.4,0.3-0.6,0.5s-0.3,0.5-0.3,0.8c-0.1,0.3-0.1,0.7-0.1,1.1v0.6
			c0,0.4,0,0.7,0.1,1.1c0.1,0.3,0.2,0.6,0.3,0.8c0.1,0.2,0.3,0.4,0.6,0.5c0.2,0.1,0.5,0.2,0.8,0.2c0.3,0,0.5,0,0.7-0.1
			c0.2-0.1,0.4-0.2,0.5-0.3c0.1-0.1,0.2-0.3,0.3-0.5c0.1-0.2,0.1-0.4,0.2-0.7h1.4V212.4z"/>
		<path class="st3" d="M-243.8,208.2h-2.4v6.7h-1.3v-6.7h-2.5v-1.1h6.2V208.2z"/>
		<path class="st3" d="M-237.1,207.1v5.2c0,0.4-0.1,0.8-0.2,1.2c-0.2,0.3-0.4,0.6-0.6,0.8c-0.3,0.2-0.6,0.4-0.9,0.5
			c-0.4,0.1-0.7,0.2-1.1,0.2c-0.4,0-0.8-0.1-1.2-0.2c-0.4-0.1-0.7-0.3-0.9-0.5s-0.5-0.5-0.6-0.8c-0.1-0.3-0.2-0.7-0.2-1.2v-5.2h1.4
			v5.2c0,0.3,0,0.5,0.1,0.7c0.1,0.2,0.2,0.4,0.3,0.5s0.3,0.2,0.5,0.3c0.2,0.1,0.4,0.1,0.7,0.1c0.2,0,0.5,0,0.7-0.1
			c0.2-0.1,0.4-0.2,0.5-0.3c0.1-0.1,0.2-0.3,0.3-0.5c0.1-0.2,0.1-0.4,0.1-0.7v-5.2H-237.1z"/>
		<path class="st3" d="M-232.7,211.9h-1.5v3h-1.4v-7.8h2.8c0.4,0,0.8,0.1,1.2,0.2c0.4,0.1,0.6,0.3,0.9,0.5c0.2,0.2,0.4,0.4,0.6,0.7
			c0.1,0.3,0.2,0.6,0.2,1c0,0.5-0.1,1-0.4,1.3c-0.3,0.4-0.6,0.6-1.1,0.8l1.8,3.3v0.1h-1.5L-232.7,211.9z M-234.3,210.8h1.4
			c0.2,0,0.5,0,0.6-0.1c0.1-0.1,0.3-0.2,0.5-0.3c0.1-0.1,0.2-0.3,0.3-0.4c0.1-0.2,0.1-0.3,0.1-0.5s0-0.4-0.1-0.5
			c-0.1-0.2-0.1-0.3-0.3-0.4c-0.1-0.1-0.3-0.2-0.5-0.3c-0.1-0.1-0.3-0.1-0.6-0.1h-1.4C-234.3,208.2-234.3,210.8-234.3,210.8z"/>
		<path class="st3" d="M-224.4,213.1h-3l-0.6,1.8h-1.4l3-7.8h1.2l3,7.8h-1.4L-224.4,213.1z M-227,212h2.3l-1.1-3.2L-227,212z"/>
	</g>
	<g class="st2">
		<path class="st3" d="M-205,214.2L-205,214.2h15l0,0l-15-16l0,0V214.2z"/>
	</g>
	<g class="st2">
		<rect x="-270" y="225.2" class="st3" width="50" height="3"/>
		<rect x="-270" y="230.2" class="st3" width="50" height="3"/>
		<path class="st3" d="M-270,243.2v1.3v0.7v56v1.1v0.9h72v-0.9v-1.1v-56v-0.7v-1.3H-270z M-200,291.2h-9v-9h9V291.2z M-211,291.2
			h-23v-9h23V291.2z M-268,282.2h8v9h-8V282.2z M-258,282.2h22v9h-22V282.2z M-258,280.2v-35h22v35H-258z M-236,293.2v8h-22v-8H-236
			z M-234,293.2h23v8h-23V293.2z M-234,280.2v-35h23v35H-234z M-260,245.2v35h-8v-35H-260z M-268,293.2h8v8h-8V293.2z M-209,301.2
			v-8h9v8H-209z M-200,280.2h-9v-35h9V280.2z"/>
	</g>
</g>
<path class="st4" d="M-73.2,210.2h-53.7c-2.1,0-4.1,1.7-4.1,4v83.2c0,2.1,1.9,3.9,4.1,3.9h61.8c2.1,0,4.1-1.7,4.1-3.9v-74.6
	L-73.2,210.2z"/>
<g>
	<g>
		<g>
			<path class="st5" d="M-72.2,248.4h-47.5c-1.5,0-2.7-1.2-2.7-2.7s1.2-2.7,2.7-2.7h47.5c1.5,0,2.7,1.2,2.7,2.7
				S-70.7,248.4-72.2,248.4z"/>
		</g>
	</g>
</g>
<g>
	<g>
		<g>
			<path class="st5" d="M-72.2,259.2h-47.5c-1.5,0-2.7-1.2-2.7-2.7c0-1.5,1.2-2.7,2.7-2.7h47.5c1.5,0,2.7,1.2,2.7,2.7
				C-69.5,258.1-70.7,259.2-72.2,259.2z"/>
		</g>
	</g>
</g>
<g>
	<g>
		<g>
			<path class="st5" d="M-72.2,270.6h-47.5c-1.5,0-2.7-1.2-2.7-2.7s1.2-2.7,2.7-2.7h47.5c1.5,0,2.7,1.2,2.7,2.7
				S-70.7,270.6-72.2,270.6z"/>
		</g>
	</g>
</g>
<g class="st0">
	<g class="st2">
		<g>
			<path class="st5" d="M-150.6,223.6h-22.2c-1.5,0-2.7-1.2-2.7-2.7s1.2-2.7,2.7-2.7h22.2c1.5,0,2.7,1.2,2.7,2.7
				S-149.1,223.6-150.6,223.6z"/>
		</g>
	</g>
</g>
<g class="st0">
	<g class="st2">
		<g>
			<path class="st5" d="M-150.6,234.4h-22.2c-1.5,0-2.7-1.2-2.7-2.7s1.2-2.7,2.7-2.7h22.2c1.5,0,2.7,1.2,2.7,2.7
				S-149.1,234.4-150.6,234.4z"/>
		</g>
	</g>
</g>
<g>
	<g>
		<g>
			<path class="st5" d="M-82.1,293.2h-37.6c-1.5,0-2.7-1.2-2.7-2.7s1.2-2.7,2.7-2.7h37.6c1.5,0,2.7,1.2,2.7,2.7
				S-80.6,293.2-82.1,293.2z"/>
		</g>
	</g>
</g>
<path class="st5" d="M-73,210.2l11.8,13h-9.6c-1.4,0-2.3-1.6-2.3-3V210.2z"/>
<circle class="st5" cx="-72.2" cy="290.9" r="2.7"/>
<g>
	<g>
		<path class="st6" d="M-108.2,229.6l0.8-0.4c0,0,0.8-0.4,1.1-0.9c0.2-0.4,0.4-1.7,0.4-1.7v-8.4l-5.3,3.1l-0.1,6.6L-108.2,229.6z"/>
		<path class="st6" d="M-108.2,229.8L-108.2,229.8L-108.2,229.8l-3.1-1.6l-1.2-0.5l-3,1.8v1.1c0,0,0.1,0.7,0.3,1
			c0.2,0.4,1.3,0.9,1.3,0.9l8.1,4.2v-5.4v-0.2L-108.2,229.8z"/>
		<path class="st6" d="M-112.6,223.1c0,0-0.3-0.2-0.8-0.2c-0.3,0-0.9,0.3-0.9,0.3l-8.2,4.9l4.6,2.5l6.4-3.9v-3L-112.6,223.1z"/>
	</g>
</g>
</svg>
