<?xml version="1.0" encoding="utf-8"?>
<!-- Generator: Adobe Illustrator 19.0.1, SVG Export Plug-In . SVG Version: 6.00 Build 0)  -->
<svg version="1.1" id="Capa_1" xmlns="http://www.w3.org/2000/svg" xmlns:xlink="http://www.w3.org/1999/xlink" x="0px" y="0px"
	 viewBox="0 0 106.1 125" style="enable-background:new 0 0 106.1 125;" xml:space="preserve">
<style type="text/css">
	.st0{fill:#FFFFFF;}
	.st1{fill:#7C8C98;}
	.st2{fill:#4F6173;}
	.st3{fill:url(#SVGID_1_);}
</style>
<g>
	<g>
		<g>
			<g>
				<g>
					<g>
						<polygon class="st0" points="103,3 93,13 83,3 73,13 63,3 53,13 43,3 33,13 23,3 23,122 33,112 43,122 53,112 63,122 73,112 
							83,122 93,112 103,122 						"/>
					</g>
				</g>
			</g>
		</g>
		<g>
			<g>
				<g>
					<g>
						<path class="st1" d="M38,44c-5.5,0-10.6,1.5-15,4v52c4.4,2.6,9.5,4,15,4c16.6,0,30-13.4,30-30S54.6,44,38,44z"/>
					</g>
				</g>
			</g>
		</g>
		<g>
			<g>
				<g>
					<g>
						<g>
							<path class="st2" d="M23,28.7c-1.7,0-3-1.3-3-3V3c0-1.7,1.3-3,3-3s3,1.3,3,3v22.7C26,27.4,24.7,28.7,23,28.7z"/>
						</g>
					</g>
				</g>
			</g>
			<g>
				<g>
					<g>
						<path class="st2" d="M103,125c-0.8,0-1.5-0.3-2.1-0.9l-7.9-7.9l-7.9,7.9c-1.2,1.2-3.1,1.2-4.2,0l-7.9-7.9l-7.9,7.9
							c-1.2,1.2-3.1,1.2-4.2,0l-7.9-7.9l-7.9,7.9c-1.2,1.2-3.1,1.2-4.2,0l-7.9-7.9l-7.9,7.9c-0.9,0.9-2.1,1.1-3.3,0.7
							c-1.1-0.5-1.9-1.6-1.9-2.8V92.3c0-1.7,1.3-3,3-3s3,1.3,3,3v22.5l4.9-4.9c1.2-1.2,3.1-1.2,4.2,0l7.9,7.9l7.9-7.9
							c1.2-1.2,3.1-1.2,4.2,0l7.9,7.9l7.9-7.9c1.2-1.2,3.1-1.2,4.2,0l7.9,7.9l7.9-7.9c1.2-1.2,3.1-1.2,4.2,0l4.9,4.9V10.2L95,15.1
							c-1.2,1.2-3.1,1.2-4.2,0L83,7.2l-7.9,7.9c-1.2,1.2-3.1,1.2-4.2,0L63,7.2l-7.9,7.9c-1.2,1.2-3.1,1.2-4.2,0l-10-10
							c-1.2-1.2-1.2-3.1,0-4.2c1.2-1.2,3.1-1.2,4.2,0L53,8.8l7.9-7.9c1.2-1.2,3.1-1.2,4.2,0L73,8.8l7.9-7.9c1.2-1.2,3.1-1.2,4.2,0
							L93,8.8l7.9-7.9c0.9-0.9,2.1-1.1,3.3-0.7c1.1,0.5,1.9,1.6,1.9,2.8v119c0,1.2-0.7,2.3-1.9,2.8C103.8,124.9,103.4,125,103,125z"
							/>
					</g>
				</g>
			</g>
		</g>
		<g>
			<g>
				<g>
					<circle class="st0" cx="33" cy="64" r="30"/>
				</g>
			</g>
		</g>
		<g>
			<g>
				<g>
					<path class="st2" d="M33,97C14.8,97,0,82.2,0,64s14.8-33,33-33s33,14.8,33,33S51.2,97,33,97z M33,37C18.1,37,6,49.1,6,64
						s12.1,27,27,27s27-12.1,27-27S47.9,37,33,37z"/>
				</g>
			</g>
		</g>
		<g>
			<g>
				<g>
					<path class="st1" d="M88,37H63c-1.7,0-3-1.3-3-3s1.3-3,3-3h25c1.7,0,3,1.3,3,3S89.7,37,88,37z"/>
				</g>
			</g>
		</g>
		<g>
			<g>
				<g>
					<g>
						<path class="st1" d="M88,52H73c-1.7,0-3-1.3-3-3s1.3-3,3-3h15c1.7,0,3,1.3,3,3S89.7,52,88,52z"/>
					</g>
				</g>
			</g>
		</g>
		<g>
			<g>
				<g>
					<path class="st1" d="M88,67H76c-1.7,0-3-1.3-3-3s1.3-3,3-3h12c1.7,0,3,1.3,3,3C91,65.7,89.7,67,88,67z"/>
				</g>
			</g>
		</g>
		<g>
			<g>
				<g>
					<path class="st1" d="M88,82H67c-1.7,0-3-1.3-3-3s1.3-3,3-3h21c1.7,0,3,1.3,3,3S89.7,82,88,82z"/>
				</g>
			</g>
		</g>
		<g>
			<g>
				<g>
					<path class="st1" d="M78,97H57c-1.7,0-3-1.3-3-3s1.3-3,3-3h21c1.7,0,3,1.3,3,3S79.7,97,78,97z"/>
				</g>
			</g>
		</g>
		<g>
			<g>
				<g>
					<path class="st1" d="M88,97c-0.8,0-1.6-0.3-2.1-0.9C85.3,95.6,85,94.8,85,94s0.3-1.6,0.9-2.1c1.1-1.1,3.1-1.1,4.2,0
						c0.1,0.1,0.3,0.3,0.4,0.5s0.2,0.3,0.3,0.5c0.1,0.2,0.1,0.4,0.2,0.6c0,0.2,0.1,0.4,0.1,0.6c0,0.8-0.3,1.6-0.9,2.1
						c-0.1,0.1-0.3,0.3-0.5,0.4s-0.3,0.2-0.5,0.3C89,97,88.8,97,88.6,97.1C88.4,97,88.2,97,88,97z"/>
				</g>
			</g>
		</g>
	</g>
	<linearGradient id="SVGID_1_" gradientUnits="userSpaceOnUse" x1="59.3803" y1="90.3797" x2="25.9214" y2="56.9208">
		<stop  offset="0" style="stop-color:#0F497B"/>
		<stop  offset="3.120000e-02" style="stop-color:#0C5089"/>
		<stop  offset="0.1044" style="stop-color:#0B5EA0"/>
		<stop  offset="0.1723" style="stop-color:#0B66AE"/>
		<stop  offset="0.2293" style="stop-color:#0C69B2"/>
		<stop  offset="0.5706" style="stop-color:#008CBF"/>
		<stop  offset="1" style="stop-color:#0BB4CA"/>
	</linearGradient>
	<path class="st3" d="M44.9,75.9L44.9,75.9c-1.1,1.1-2.8,1.1-3.9,0l-8-8l-8,8c-1.1,1.1-2.8,1.1-3.9,0l0,0c-1.1-1.1-1.1-2.8,0-3.9
		l8-8l-8-8c-1.1-1.1-1.1-2.8,0-3.9l0,0c1.1-1.1,2.8-1.1,3.9,0l8,8l8-8c1.1-1.1,2.8-1.1,3.9,0l0,0c1.1,1.1,1.1,2.8,0,3.9l-8,8l8,8
		C46,73.1,46,74.8,44.9,75.9z"/>
</g>
</svg>
