<?xml version="1.0" encoding="utf-8"?>
<!-- Generator: Adobe Illustrator 19.0.1, SVG Export Plug-In . SVG Version: 6.00 Build 0)  -->
<svg version="1.1" id="Capa_1" xmlns="http://www.w3.org/2000/svg" xmlns:xlink="http://www.w3.org/1999/xlink" x="0px" y="0px"
	 viewBox="-499 239 24 24" style="enable-background:new -499 239 24 24;" xml:space="preserve">
<style type="text/css">
	.st0{display:none;}
	.st1{fill:none;}
	.st2{fill:#7C8C98;}
</style>
<g id="Bounding_Boxes">
	<g id="ui_x5F_spec_x5F_header_copy_3" class="st0">
	</g>
	<path class="st1" d="M-499,239h24v24h-24V239z"/>
</g>
<g id="Rounded_1_">
	<g id="ui_x5F_spec_x5F_header_copy_6" class="st0">
	</g>
	<path class="st2" d="M-478.5,244.3l-1.4-1.7c-0.3-0.3-0.7-0.6-1.1-0.6h-12c-0.5,0-0.9,0.2-1.2,0.6l-1.4,1.7
		c-0.3,0.3-0.5,0.8-0.5,1.3V258c0,1.1,0.9,2,2,2h14c1.1,0,2-0.9,2-2v-12.5C-478,245.1-478.2,244.6-478.5,244.3z M-487.4,256.2
		l-5.1-5.1h3.5v-2h4v2h3.5l-5.1,5.1C-486.8,256.4-487.2,256.4-487.4,256.2z M-493.9,244l0.8-1h12l0.9,1H-493.9z"/>
</g>
</svg>
